<?xml version="1.0" encoding="utf-8"?>
<!-- Generator: Adobe Illustrator 19.2.1, SVG Export Plug-In . SVG Version: 6.00 Build 0)  -->
<svg version="1.1" id="Layer_1" xmlns="http://www.w3.org/2000/svg" xmlns:xlink="http://www.w3.org/1999/xlink" x="0px" y="0px"
	 viewBox="0 0 14 14" enable-background="new 0 0 14 14" xml:space="preserve">
<g>
	<path fill="#010101" d="M7.0000968,0.1000977C3.1954091,0.1000977,0.1006825,3.1953125,0.1006825,7
		s3.0947266,6.8994141,6.8994141,6.8994141S13.8995104,10.8046875,13.8995104,7S10.8047838,0.1000977,7.0000968,0.1000977z
		 M7.0000968,12.7001953c-3.1425784,0-5.7001953-2.5576172-5.7001953-5.7001953c0-3.1430664,2.5576172-5.699707,5.7001953-5.699707
		S12.7002916,3.8569336,12.7002916,7C12.7002916,10.1425781,10.1426744,12.7001953,7.0000968,12.7001953z"/>
	<path fill="#010101" d="M9.9073229,6.3999023H7.5997062V4.0922852c0-0.331543-0.2685547-0.6000977-0.5996094-0.6000977
		S6.4004874,3.7607422,6.4004874,4.0922852v2.3076172H4.0918937C3.7608387,6.3999023,3.4922841,6.668457,3.4922841,7
		s0.2685547,0.6000977,0.5996096,0.6000977h2.3085938v2.3071289c0,0.3310547,0.2685547,0.5996094,0.5996094,0.5996094
		s0.5996094-0.2685547,0.5996094-0.5996094V7.6000977h2.3076167c0.3310547,0,0.5996094-0.2685547,0.5996094-0.6000977
		S10.2383776,6.3999023,9.9073229,6.3999023z"/>
</g>
</svg>
