<?xml version="1.0" encoding="utf-8"?>
<!-- Generator: Adobe Illustrator 18.1.1, SVG Export Plug-In . SVG Version: 6.00 Build 0)  -->
<!DOCTYPE svg PUBLIC "-//W3C//DTD SVG 1.1//EN" "http://www.w3.org/Graphics/SVG/1.1/DTD/svg11.dtd">
<svg version="1.1" id="Layer_1" xmlns="http://www.w3.org/2000/svg" xmlns:xlink="http://www.w3.org/1999/xlink" x="0px" y="0px"
	 viewBox="0 0 12 12" enable-background="new 0 0 12 12" xml:space="preserve">
<path d="M7.947996,5.500006H6.802H6.499998V5.198004V4.052008c0-0.276367-0.223633-0.5-0.5-0.5s-0.5,0.223633-0.5,0.5v1.145996
	v0.302002H5.197996H4.052c-0.276367,0-0.5,0.223633-0.5,0.5s0.223633,0.5,0.5,0.5h1.145996h0.302002v0.302002v1.145996
	c0,0.276367,0.223633,0.5,0.5,0.5s0.5-0.223633,0.5-0.5V6.802008V6.500006H6.802h1.145996c0.276368,0,0.5-0.223633,0.5-0.5
	S8.224363,5.500006,7.947996,5.500006z"/>
</svg>
