<?xml version="1.0" encoding="utf-8"?>
<!-- Generator: Adobe Illustrator 18.1.1, SVG Export Plug-In . SVG Version: 6.00 Build 0)  -->
<!DOCTYPE svg PUBLIC "-//W3C//DTD SVG 1.1//EN" "http://www.w3.org/Graphics/SVG/1.1/DTD/svg11.dtd">
<svg version="1.1" id="Layer_1" xmlns="http://www.w3.org/2000/svg" xmlns:xlink="http://www.w3.org/1999/xlink" x="0px" y="0px"
	 viewBox="0 0 12 12" enable-background="new 0 0 12 12" xml:space="preserve">
<g>
	<g>
		<g>
			<path d="M5.903748,6.500148c-0.276367,0-0.5-0.223633-0.5-0.5v-2.75c0-0.276367,0.223633-0.5,0.5-0.5s0.5,0.223633,0.5,0.5v2.75
				C6.403748,6.276515,6.180115,6.500148,5.903748,6.500148z"/>
		</g>
		<g>
			<circle cx="5.904068" cy="8.160716" r="0.589286"/>
		</g>
	</g>
	<g>
		<path d="M6.000427,12.000148c-3.308594,0-6-2.691406-6-6s2.691406-6,6-6s6,2.691406,6,6S9.309021,12.000148,6.000427,12.000148z
			 M6.000427,1.000148c-2.756836,0-5,2.243164-5,5s2.243164,5,5,5s5-2.243164,5-5S8.757263,1.000148,6.000427,1.000148z"/>
	</g>
</g>
</svg>
