<?xml version="1.0" encoding="UTF-8" standalone="no"?>
<svg viewBox="0 0 16 16" version="1.1" xmlns="http://www.w3.org/2000/svg" xmlns:xlink="http://www.w3.org/1999/xlink">
    <g stroke="none">
        <path d="M8,0 C12.4186667,0 16,3.58133333 16,8 C16,12.4186667 12.4186667,16 8,16 C3.58133333,16 0,12.4186667 0,8 C0,3.58133333 3.58133333,0 8,0 Z M8,1.5 C4.40976046,1.5 1.5,4.40976046 1.5,8 C1.5,11.5902395 4.40976046,14.5 8,14.5 C11.5902395,14.5 14.5,11.5902395 14.5,8 C14.5,4.40976046 11.5902395,1.5 8,1.5 Z"></path>
        <path d="M7.54980341,10.5107298 C7.35873115,10.5350553 7.15884919,10.4738485 7.01211016,10.3271095 L5.18880902,8.50380831 C4.93706366,8.25206295 4.93706366,7.84390309 5.18880902,7.59215774 C5.44055437,7.34041238 5.84871423,7.34041238 6.10045959,7.59215774 L7.3910467,8.88274484 L9.91725707,5.27494253 C10.1214627,4.98330663 10.5234217,4.91243041 10.8150576,5.11663607 C11.1066935,5.32084172 11.1775697,5.72280072 10.9733641,6.01443662 L8.01538772,10.2388647 C7.90298345,10.3993946 7.73066163,10.4930363 7.54980341,10.5107298 L7.54980341,10.5107298 Z"></path>
    </g>
</svg>