<?xml version="1.0" encoding="utf-8"?>
<!-- Generator: Adobe Illustrator 21.1.0, SVG Export Plug-In . SVG Version: 6.00 Build 0)  -->
<svg version="1.1" id="Layer_1" xmlns="http://www.w3.org/2000/svg" xmlns:xlink="http://www.w3.org/1999/xlink" x="0px" y="0px"
	 viewBox="0 0 14 14" enable-background="new 0 0 14 14" xml:space="preserve">
<g id="Arrow_Left_-_Grey">
</g>
<g>
	<g>
		<g>
			<g>
				<path d="M7,0C4.430376,0,2.339814,2.090535,2.339814,4.660186S4.430376,9.320372,7,9.320372
					s4.660186-2.090508,4.660186-4.660186C11.660186,2.090535,9.569624,0,7,0z M7,8.1893
					c-1.945969,0-3.529114-1.583145-3.529114-3.529114S5.054031,1.131045,7,1.131045s3.529114,1.583173,3.529114,3.529141
					S8.945969,8.1893,7,8.1893z"/>
			</g>
		</g>
		<g>
			<g>
				<path d="M10.485364,13.360074L9.777599,8.025319c-0.041097-0.30964-0.325253-0.527268-0.635002-0.486252
					c-0.30964,0.041097-0.527323,0.32539-0.486253,0.635003l0.553492,4.171909l-1.918899-1.151361
					c-0.179101-0.107432-0.4028-0.107378-0.581928,0l-1.918707,1.151252l0.5533-4.165867
					c0.041125-0.30964-0.176558-0.593959-0.486144-0.635085c-0.309613-0.04118-0.59396,0.176558-0.635085,0.486116
					l-0.707792,5.328903c-0.028574,0.215304,0.068605,0.427901,0.250113,0.547148
					c0.181508,0.119218,0.415269,0.123976,0.601479,0.012278L7,12.339116l2.633772,1.580301
					C9.723459,13.973229,9.824111,14,9.924709,14c0.10828,0,0.216397-0.031035,0.310488-0.092832
					C10.416731,13.787921,10.513911,13.575324,10.485364,13.360074z"/>
			</g>
		</g>
	</g>
	<path d="M9.072069,4.18254c-0.015324-0.047178-0.0561-0.081561-0.105181-0.088684L7.688544,3.908098L7.116847,2.749709
		C7.094895,2.705233,7.049602,2.677078,7,2.677078c-0.049602,0-0.094895,0.028154-0.116847,0.072631L6.311456,3.908098
		L5.033111,4.093857C4.984031,4.10098,4.943264,4.135363,4.927931,4.18254C4.912599,4.22971,4.925386,4.281492,4.960907,4.316109
		l0.925008,0.901667L5.667545,6.490961C5.659162,6.539842,5.679264,6.589252,5.719388,6.618405
		C5.759504,6.64755,5.812693,6.651406,5.856614,6.628325L7,6.027205l1.143386,0.60112
		c0.019076,0.010025,0.03989,0.014967,0.060626,0.014967c0.027016,0,0.053902-0.008392,0.0766-0.024888
		c0.040124-0.029161,0.060225-0.078564,0.051843-0.127444L8.114085,5.217776l0.925009-0.901667
		C9.074615,4.281492,9.087401,4.22971,9.072069,4.18254z"/>
</g>
</svg>
