<svg xmlns:dc="http://purl.org/dc/elements/1.1/" xmlns:cc="http://creativecommons.org/ns#" xmlns:rdf="http://www.w3.org/1999/02/22-rdf-syntax-ns#" xmlns:svg="http://www.w3.org/2000/svg" xmlns="http://www.w3.org/2000/svg" xmlns:sodipodi="http://sodipodi.sourceforge.net/DTD/sodipodi-0.dtd" xmlns:inkscape="http://www.inkscape.org/namespaces/inkscape" version="1.1" x="0px" y="0px" viewBox="0 0 100 125"><g transform="translate(0,-952.36218)"><path d="m 50,957.36099 c -18.20171,0 -33,14.79829 -33,33.00001 0,6.6964 2.030209,12.9173 5.46875,18.125 l -17.1249985,24.7187 a 2.0002,2.0002 0 0 0 2.0625,3.0938 l 13.1562485,-2.625 3.5,12.2187 a 2.0002,2.0002 0 0 0 3.625,0.5313 l 15.25,-23.8125 c 2.272945,0.4964 4.642443,0.75 7.0625,0.75 2.42006,0 4.78956,-0.2536 7.0625,-0.75 l 15.25,23.8125 a 2.0002,2.0002 0 0 0 3.625,-0.5313 l 3.5,-12.2187 13.156249,2.625 a 2.0002,2.0002 0 0 0 2.0625,-3.0938 L 77.53125,1008.486 C 80.96979,1003.2783 83,997.0574 83,990.361 83,972.15928 68.20171,957.36099 50,957.36099 z m 0,4 c 16.039951,0 29,12.96005 29,29.00001 0,16.0399 -12.960049,29 -29,29 -16.03995,0 -29,-12.9601 -29,-29 0,-16.03996 12.96005,-29.00001 29,-29.00001 z m -0.1875,10.03125 a 2.0106712,1.9897833 0 0 0 -1.59375,1.09375 l -4.8125,9.59371 -10.6875,1.5313 a 2.0106712,1.9897833 0 0 0 -1.125,3.375 l 7.75,7.4687 -1.84375,10.5625 a 2.0106712,1.9897833 0 0 0 1.75,2.3125 2.0106712,1.9897833 0 0 0 1.1875,-0.2187 l 9.5625,-5 9.5625,5 a 2.0106712,1.9897833 0 0 0 2.9375,-2.0938 l -1.84375,-10.5625 7.75,-7.4687 a 2.0106712,1.9897833 0 0 0 -1.125,-3.375 l -10.6875,-1.5313 -4.8125,-9.59371 a 2.0106712,1.9897833 0 0 0 -1.96875,-1.09375 z m 0.1875,6.4375 3.4375,6.90626 a 2.0106712,1.9897833 0 0 0 1.53125,1.0937 l 7.71875,1.125 -5.59375,5.375 A 2.0106712,1.9897833 0 0 0 56.5,994.111 l 1.34375,7.5937 -6.90625,-3.5937 a 2.0106712,1.9897833 0 0 0 -1.875,0 l -6.875,3.5937 1.28125,-7.5937 A 2.0106712,1.9897833 0 0 0 42.875,992.3297 l -5.5625,-5.375 7.71875,-1.125 A 2.0106712,1.9897833 0 0 0 46.5625,984.736 L 50,977.82974 z M 25,1011.861 c 3.698969,4.2946 8.466048,7.6489 13.90625,9.5937 l -12.1875,19.0625 -2.78125,-9.7187 a 2.0002,2.0002 0 0 0 -2.34375,-1.4063 L 11.468751,1031.4235 25,1011.861 z m 50,0 13.53125,19.5625 -10.125,-2.0313 a 2.0002,2.0002 0 0 0 -2.34375,1.4063 l -2.78125,9.7187 -12.1875,-19.0625 c 5.440201,-1.9448 10.20728,-5.2991 13.90625,-9.5937 z" style="text-indent:0;text-transform:none;direction:ltr;block-progression:tb;baseline-shift:baseline;color:#000000;enable-background:accumulate;" fill="#000000" fill-opacity="1" stroke="none" marker="none" visibility="visible" display="inline" overflow="visible"/></g><text x="0" y="115" fill="#000000" font-size="5px" font-weight="bold" font-family="'Helvetica Neue', Helvetica, Arial-Unicode, Arial, Sans-serif">Created by iconsphere</text><text x="0" y="120" fill="#000000" font-size="5px" font-weight="bold" font-family="'Helvetica Neue', Helvetica, Arial-Unicode, Arial, Sans-serif">from the Noun Project</text></svg>