<?xml version="1.0" encoding="utf-8"?>
<!-- Generator: Adobe Illustrator 18.0.0, SVG Export Plug-In . SVG Version: 6.00 Build 0)  -->
<!DOCTYPE svg PUBLIC "-//W3C//DTD SVG 1.1//EN" "http://www.w3.org/Graphics/SVG/1.1/DTD/svg11.dtd">
<svg version="1.1" id="Layer_1" xmlns="http://www.w3.org/2000/svg" xmlns:xlink="http://www.w3.org/1999/xlink" x="0px" y="0px"
	 viewBox="0 0 13.896 12.119" enable-background="new 0 0 13.896 12.119" xml:space="preserve">
<g>
	<g>
		<path fill="#323232" d="M13.896,6.566c0,0.138-0.113,0.25-0.25,0.25H1.323c-0.138,0-0.25-0.112-0.25-0.25V5.553
			c0-0.137,0.112-0.25,0.25-0.25h12.323c0.137,0,0.25,0.113,0.25,0.25V6.566z"/>
	</g>
	<g>
		<g>
			<path fill="#323232" d="M6.954,0.789c0.097,0.097,0.097,0.256,0,0.354L1.143,6.954c-0.097,0.097-0.256,0.097-0.354,0L0.073,6.238
				c-0.097-0.097-0.097-0.256,0-0.354l5.811-5.811c0.097-0.097,0.256-0.097,0.354,0L6.954,0.789z"/>
		</g>
		<g>
			<path fill="#323232" d="M6.238,12.046c-0.097,0.097-0.256,0.097-0.354,0L0.073,6.234c-0.097-0.097-0.097-0.256,0-0.354
				l0.716-0.716c0.097-0.097,0.256-0.097,0.354,0l5.811,5.811c0.097,0.097,0.097,0.256,0,0.354L6.238,12.046z"/>
		</g>
	</g>
</g>
</svg>
