<?xml version="1.0" encoding="utf-8"?>
<!-- Generator: Adobe Illustrator 19.2.1, SVG Export Plug-In . SVG Version: 6.00 Build 0)  -->
<svg version="1.1" id="Layer_1" xmlns="http://www.w3.org/2000/svg" xmlns:xlink="http://www.w3.org/1999/xlink" x="0px" y="0px"
	 viewBox="0 0 14 14" enable-background="new 0 0 14 14" xml:space="preserve">
<g>
	<path fill="#010101" d="M6.5880904,8.8722649h0.0817904v2.2796364c0,0.3012915,0.2575297,0.5458946,0.5747447,0.5458946
		c0.3161092,0,0.5736394-0.2446032,0.5736394-0.5458946V8.3258457c0-0.3012915-0.2575297-0.5464191-0.5736394-0.5464191H6.5880904
		c-0.317214,0-0.5747442,0.2451277-0.5747442,0.5464191C6.0133462,8.6271362,6.270875,8.8722649,6.5880904,8.8722649z"/>
	<path fill="#010101" d="M13.4142857,4.3061619c-0.07516-1.4191766-1.1561213-2.5747447-2.5498762-2.7620893V0.5758492
		C10.8644094,0.2586348,10.6068792,0,10.2885599,0S9.7127094,0.2586348,9.7127094,0.5758492v0.9295382H4.1896377V0.5758492
		C4.1896377,0.2586348,3.9321074,0,3.614893,0C3.2965727,0,3.0390427,0.2586348,3.0390427,0.5758492v0.9836971
		C1.67513,1.7855752,0.6560642,2.9118528,0.591958,4.2647138C0.5809052,4.3050561,0.5764847,4.3487148,0.5764847,4.3979006
		v6.7101421c0,0.0469732,0.0044217,0.0884218,0.0077373,0.0884218l0.0011048-0.0005531
		C0.6649064,12.7687206,1.9591866,14,3.5331028,14h6.9334078c1.5694942,0,2.8637743-1.2290688,2.9433546-2.76651
		c0.0088415-0.0420008,0.0132627-0.0845547,0.0132627-0.1254482V4.4061899
		C13.4253378,4.3525839,13.4176006,4.306715,13.4142857,4.3061619z M12.2758493,11.0024872
		c-0.0055265,0.0298424-0.0088425,0.0624475-0.0088425,0.0895271c-0.0287371,0.9848032-0.8190107,1.7573919-1.7993908,1.7573919
		H3.5331028c-0.9814866,0-1.7717607-0.7714844-1.7993921-1.7634706c-0.0011059-0.0243158-0.0033169-0.0480785-0.0055265-0.0480785
		c0,0,0,0.0022097-0.0011048,0.0066319V6.5598226h10.545455L12.2758493,11.0024872z M3.614893,4.7537994
		c0.3172145,0,0.5747442-0.258635,0.5747442-0.5758495V2.6576397h5.5230722v1.5203102
		c0,0.3172145,0.2575312,0.5758495,0.5758505,0.5758495s0.5758495-0.258635,0.5758495-0.5758495V2.7095881
		c0.8013268,0.1757398,1.3782816,0.8593538,1.4025974,1.6982594c0,0.0292892,0.0022097,0.0574746,0.0044212,0.0574746
		c0,0,0,0,0.0011053-0.0005527v0.9422493H1.7281841L1.7248685,4.5012436
		c0.0055252-0.026526,0.0077362-0.0530539,0.0088421-0.0878696c0.021-0.7969058,0.5570599-1.4694667,1.3053333-1.6805749V4.177949
		C3.0390427,4.4951644,3.2965727,4.7537994,3.614893,4.7537994z"/>
</g>
</svg>
