<svg id="Layer_1" data-name="Layer 1" xmlns="http://www.w3.org/2000/svg" viewBox="0 0 27 22"><defs><style>.cls-1{fill:#757377;}</style></defs><title>camera2</title><path class="cls-1" d="M13.3,6.71a5.47,5.47,0,0,0,.15,10.95l.53,0h0A5.48,5.48,0,0,0,13.3,6.71Zm.59,9.93a4.48,4.48,0,1,1-.56-8.93h.12a4.48,4.48,0,0,1,.44,8.93Z"/><path class="cls-1" d="M25,4.16H19.79L19,3c-.43-.65-.85-1.3-1.27-2a1,1,0,0,0-.94-.5H10a.84.84,0,0,0-.76.4L8.31,2.3,7.08,4.16H1.89A1.39,1.39,0,0,0,.5,5.55V19.76a1.39,1.39,0,0,0,1.39,1.39H25a1.39,1.39,0,0,0,1.39-1.39V5.55A1.39,1.39,0,0,0,25,4.16Zm.39,15.6a.39.39,0,0,1-.39.39H1.89a.39.39,0,0,1-.39-.39V5.55a.39.39,0,0,1,.39-.39H7.47l.13-.09a.84.84,0,0,0,.23-.24l1.31-2L10,1.5h6.8l0,0c.42.66.85,1.31,1.28,2L19,4.84a.9.9,0,0,0,.2.21l.14.11H25a.39.39,0,0,1,.39.39Z"/></svg>