<?xml version="1.0" encoding="utf-8"?>
<!-- Generator: Adobe Illustrator 19.2.1, SVG Export Plug-In . SVG Version: 6.00 Build 0)  -->
<svg version="1.1" id="Layer_1" xmlns="http://www.w3.org/2000/svg" xmlns:xlink="http://www.w3.org/1999/xlink" x="0px" y="0px"
	 viewBox="0 0 96 96" enable-background="new 0 0 96 96" xml:space="preserve">
<path d="M84,19.9990005H72L64,8H32l-8,12H12C5.37012,20,0,25.4335995,0,32.0625V76c0,6.6298981,5.37012,12,12,12h72
	c6.6298981,0,12-5.3086014,12-11.9375V32.1240005C96,25.4941006,90.6298981,19.9990005,84,19.9990005z M88,76.0625
	C88,78.2733994,86.2432022,80,84,80H12c-2.2060499,0-4-1.7938995-4-4V32.0625C8,29.8232002,9.7939501,28,12,28h16.2812996l8-12
	h23.5781021l7.8594017,12H84c2.1679993,0,4,1.8887005,4,4.125V76.0625z M48,32c-11.0458984,0-20,8.955101-20,20s8.955101,20,20,20
	c11.0458984,0,20-8.9541016,20-20S59.0458984,32,48,32z M48,64c-6.6171989,0-12-5.3828011-12-12s5.3818016-12,12-12
	c6.6171989,0,12,5.3828011,12,12S54.6161995,64,48,64z"/>
</svg>
