<?xml version="1.0" encoding="utf-8"?>
<!-- Generator: Adobe Illustrator 18.0.0, SVG Export Plug-In . SVG Version: 6.00 Build 0)  -->
<!DOCTYPE svg PUBLIC "-//W3C//DTD SVG 1.1//EN" "http://www.w3.org/Graphics/SVG/1.1/DTD/svg11.dtd">
<svg version="1.1" xmlns="http://www.w3.org/2000/svg" xmlns:xlink="http://www.w3.org/1999/xlink" x="0px" y="0px"
	 viewBox="0 0 14 14" enable-background="new 0 0 14 14" xml:space="preserve">
<g id="Layer_8" display="none">
	<rect x="-17" y="-96.999" display="inline" fill="#483594" width="80" height="1152.138"/>
</g>
<g id="Layer_6">
</g>
<g id="Status_Icons" display="none">
</g>
<g id="Grid" display="none">
	<g display="inline">
		<path fill="none" stroke="#333333" stroke-width="0.02" stroke-miterlimit="10" d="M13.992,11.441
			c0,0.345-0.261,0.625-0.583,0.625H0.576c-0.322,0-0.583-0.28-0.583-0.625v-8.75c0-0.345,0.261-0.625,0.583-0.625h12.833
			c0.322,0,0.583,0.28,0.583,0.625V11.441z"/>
		<path fill="none" stroke="#333333" stroke-width="0.02" stroke-miterlimit="10" d="M11.992,13.478c0,0.322-0.28,0.583-0.625,0.583
			h-8.75c-0.345,0-0.625-0.261-0.625-0.583V0.645c0-0.322,0.28-0.583,0.625-0.583h8.75c0.345,0,0.625,0.261,0.625,0.583V13.478z"/>
		<path fill="none" stroke="#333333" stroke-width="0.02" stroke-miterlimit="10" d="M12.992,12.466c0,0.331-0.269,0.6-0.6,0.6
			h-10.8c-0.331,0-0.6-0.269-0.6-0.6v-10.8c0-0.331,0.269-0.6,0.6-0.6h10.8c0.331,0,0.6,0.269,0.6,0.6V12.466z"/>
	</g>
</g>
<g id="Layer_4" display="none">
</g>
<g id="Layer_1">
	<g>
		<path fill="#323232" d="M12.571,13.908c-0.123,0.123-0.323,0.123-0.446,0L0.092,1.875c-0.123-0.123-0.123-0.323,0-0.446
			l1.337-1.337c0.123-0.123,0.323-0.123,0.446,0l12.033,12.033c0.123,0.123,0.123,0.323,0,0.446L12.571,13.908z"/>
		<path fill="#323232" d="M0.092,12.571c-0.123-0.123-0.123-0.323,0-0.446L12.125,0.092c0.123-0.123,0.323-0.123,0.446,0
			l1.337,1.337c0.123,0.123,0.123,0.323,0,0.446L1.875,13.908c-0.123,0.123-0.323,0.123-0.446,0L0.092,12.571z"/>
	</g>
</g>
<g id="Layer_5">
</g>
</svg>
