<?xml version="1.0" encoding="utf-8"?>
<!-- Generator: Adobe Illustrator 19.2.1, SVG Export Plug-In . SVG Version: 6.00 Build 0)  -->
<svg version="1.1" id="Layer_1" xmlns="http://www.w3.org/2000/svg" xmlns:xlink="http://www.w3.org/1999/xlink" x="0px" y="0px"
	 viewBox="0 0 14 14" enable-background="new 0 0 14 14" xml:space="preserve">
<path fill="#020202" d="M7.8474941,6.9997559l5.9085083-5.9089355c0.234375-0.234375,0.234375-0.6142578,0-0.8486328
	s-0.6152344-0.234375-0.8476562,0L6.9996548,6.1517944L1.0909636,0.2421875c-0.2343751-0.234375-0.6132812-0.234375-0.8476563,0
	s-0.234375,0.6142578,0,0.8486328l5.9085083,5.9089355l-5.9085083,5.9094238c-0.234375,0.234375-0.234375,0.6142578,0,0.8476562
	c0.1171875,0.1171875,0.2705078,0.1757812,0.4238281,0.1757812s0.3076172-0.0585938,0.4238282-0.1757812l5.9086914-5.9091187
	l5.9086914,5.9091187c0.1171875,0.1171875,0.2705078,0.1757812,0.4238281,0.1757812s0.3066406-0.0585938,0.4238281-0.1757812
	c0.234375-0.2333984,0.234375-0.6132812,0-0.8476562L7.8474941,6.9997559z"/>
</svg>
