<?xml version="1.0" encoding="utf-8"?>
<!-- Generator: Adobe Illustrator 18.0.0, SVG Export Plug-In . SVG Version: 6.00 Build 0)  -->
<!DOCTYPE svg PUBLIC "-//W3C//DTD SVG 1.1//EN" "http://www.w3.org/Graphics/SVG/1.1/DTD/svg11.dtd">
<svg version="1.1" xmlns="http://www.w3.org/2000/svg" xmlns:xlink="http://www.w3.org/1999/xlink" x="0px" y="0px"
	 viewBox="0 0 14 14" enable-background="new 0 0 14 14" xml:space="preserve">
<g id="Layer_6">
</g>
<g id="Status_Icons" display="none">
</g>
<g id="Grid" display="none">
</g>
<g id="Layer_4" display="none">
</g>
<g id="Layer_1">
</g>
<g id="Layer_5">
	<g>
		<g>
			<path fill="#323232" d="M12.5,1.5v10.75c0,0.137-0.113,0.25-0.25,0.25H1.75c-0.138,0-0.25-0.113-0.25-0.25V1.75
				c0-0.138,0.112-0.25,0.25-0.25H12.5 M14,0.25C14,0.112,13.887,0,13.75,0H0.25C0.112,0,0,0.112,0,0.25v13.5
				C0,13.887,0.112,14,0.25,14h13.5c0.137,0,0.25-0.113,0.25-0.25V0.25z"/>
		</g>
		<g>
			<g>
				<path fill="#323232" d="M9.749,3.925c0.097-0.097,0.256-0.097,0.354,0l0.707,0.707c0.097,0.097,0.097,0.256,0,0.354L5.72,10.075
					c-0.097,0.097-0.256,0.097-0.354,0L4.659,9.368c-0.097-0.097-0.097-0.256,0-0.354L9.749,3.925z"/>
			</g>
			<g>
				<path fill="#323232" d="M3.191,7.892c-0.097-0.097-0.097-0.256,0-0.354l0.707-0.707c0.097-0.097,0.256-0.097,0.354,0
					l2.157,2.157c0.097,0.097,0.097,0.256,0,0.354l-0.707,0.707c-0.097,0.097-0.256,0.097-0.354,0L3.191,7.892z"/>
			</g>
		</g>
	</g>
</g>
</svg>
