<?xml version="1.0" encoding="utf-8"?>
<!-- Generator: Adobe Illustrator 18.1.1, SVG Export Plug-In . SVG Version: 6.00 Build 0)  -->
<!DOCTYPE svg PUBLIC "-//W3C//DTD SVG 1.1//EN" "http://www.w3.org/Graphics/SVG/1.1/DTD/svg11.dtd">
<svg version="1.1" id="Layer_1" xmlns="http://www.w3.org/2000/svg" xmlns:xlink="http://www.w3.org/1999/xlink" x="0px" y="0px"
	 viewBox="0 0 12 12" enable-background="new 0 0 12 12" xml:space="preserve">
<path d="M10.363647,0H1.636413C1.216492,0,0.836975,0.163513,0.546936,0.424439H0.546875V0.4245
	C0.213745,0.724243,0,1.153992,0,1.636353v8.727295C0,11.265991,0.73407,12,1.636413,12h8.727234
	C11.265991,12,12,11.265991,12,10.363647V1.636353C12,0.734009,11.265991,0,10.363647,0z M9.03894,4.555664l-3.587036,3.58551
	C5.355896,8.23877,5.228943,8.285278,5.103394,8.285278c-0.125366,0-0.250854-0.048096-0.346863-0.144104l-1.793518-1.79187
	C2.770935,6.157166,2.769409,5.844299,2.961426,5.652283c0.192078-0.192078,0.505005-0.192078,0.697021,0L5.105042,7.09729
	l3.237-3.238525c0.191956-0.192078,0.504883-0.192078,0.696899,0C9.229431,4.050781,9.229431,4.363708,9.03894,4.555664z"/>
</svg>
