<?xml version="1.0" encoding="utf-8"?>
<!-- Generator: Adobe Illustrator 19.2.1, SVG Export Plug-In . SVG Version: 6.00 Build 0)  -->
<svg version="1.1" id="Layer_1" xmlns="http://www.w3.org/2000/svg" xmlns:xlink="http://www.w3.org/1999/xlink" x="0px" y="0px"
	 viewBox="0 0 14 14" style="enable-background:new 0 0 14 14;" xml:space="preserve">
<style type="text/css">
	.st0{fill:#020202;}
</style>
<path class="st0" d="M3.34305,0.171129C3.1072102,0.4022005,3.1057453,0.7767293,3.3406086,1.0078008L9.3833332,6.999537
	l-6.0427246,5.9912553c-0.234375,0.2305899-0.2324219,0.606082,0.0024414,0.8361902
	c0.2348633,0.2305908,0.6147461,0.2296276,0.8481445-0.0024071l6.4356079-6.3798652
	c0.0096436-0.0083642,0.0219727-0.0112524,0.031189-0.020339c0.1181641-0.1155357,0.1767578-0.2671766,0.1767578-0.4192986
	c0-0.0018654-0.0010986-0.0036707-0.0010986-0.0055361s0.0010986-0.0036707,0.0010986-0.0055361
	c0-0.152122-0.0585938-0.3037629-0.1767578-0.4192986c-0.0092163-0.0090866-0.0215454-0.0119748-0.031189-0.0203395
	L4.1911945,0.1740158C3.9577961-0.058017,3.5779133-0.0589802,3.34305,0.171129z"/>
</svg>
