<?xml version="1.0" encoding="utf-8"?>
<!-- Generator: Adobe Illustrator 19.2.1, SVG Export Plug-In . SVG Version: 6.00 Build 0)  -->
<svg version="1.1" id="Layer_1" xmlns="http://www.w3.org/2000/svg" xmlns:xlink="http://www.w3.org/1999/xlink" x="0px" y="0px"
	 viewBox="0 0 14 14" style="enable-background:new 0 0 14 14;" xml:space="preserve">
<style type="text/css">
	.st0{fill:#020202;}
</style>
<path class="st0" d="M9.8088675,0.1740158L3.3732593,6.5543623C3.3636158,6.562727,3.3512866,6.5656152,3.3420703,6.5747018
	C3.2239063,6.6902375,3.1653125,6.8418784,3.1653125,6.9940004c0,0.0018654,0.0010986,0.0036707,0.0010986,0.0055361
	S3.1653125,7.0032072,3.1653125,7.0050726c0,0.152122,0.0585938,0.3037629,0.1767578,0.4192986
	c0.0092163,0.0090866,0.0215454,0.0119748,0.031189,0.020339l6.4356079,6.3798652
	c0.2333984,0.2320347,0.6132812,0.2329979,0.8481445,0.0024071c0.2348633-0.2301083,0.2368164-0.6056004,0.0024414-0.8361902
	L4.6167288,6.999537l6.0427246-5.9917364c0.2348633-0.2310715,0.2333984-0.6056004-0.0024414-0.8366718
	C10.4221487-0.0589802,10.0422659-0.058017,9.8088675,0.1740158z"/>
</svg>
