<?xml version="1.0" encoding="utf-8"?>
<!-- Generator: Adobe Illustrator 19.2.1, SVG Export Plug-In . SVG Version: 6.00 Build 0)  -->
<svg version="1.1" id="Layer_1" xmlns="http://www.w3.org/2000/svg" xmlns:xlink="http://www.w3.org/1999/xlink" x="0px" y="0px"
	 viewBox="0 0 14 14" enable-background="new 0 0 14 14" xml:space="preserve">
<path fill="#020202" d="M13.8223648,1.2119141l-0.3427734-0.394043l-0.1630859-0.1103516
	c-0.1953125-0.0878906-0.4941406-0.1518555-0.7099609-0.1518555H1.3936536c-0.2158203,0-0.515625,0.0639648-0.7109375,0.1518555
	L0.2872083,1.0507812L0.1768567,1.2133789C0.0889661,1.4091797,0.0254895,1.7080078,0.0254895,1.9243164v7.1704102
	c0,0.2177734,0.0625,0.5107422,0.1523438,0.7109375l0.3417969,0.3945312L0.6846693,10.3125
	c0.1962891,0.0869141,0.4951172,0.1494141,0.7089844,0.1494141h3.8027341
	c0.0292969,0.0009766,0.1230469,0.0273438,0.1464844,0.0419922l4.579102,2.8203125
	c0.1269531,0.078125,0.2675781,0.1191406,0.4082031,0.1191406c0.1201172,0,0.2333984-0.0283203,0.3388672-0.0869141
	c0.2275391-0.1269531,0.3632812-0.3710938,0.3632812-0.6513672v-2.2431641h1.5742188
	c0.2138672,0,0.5117188-0.0625,0.7080078-0.1494141l0.3984375-0.3466797l0.1083984-0.1591797
	c0.0888672-0.1953125,0.1533203-0.4951172,0.1533203-0.7119141V1.9243164
	C13.9747086,1.7084961,13.911232,1.4086914,13.8223648,1.2119141z M12.7930679,1.9243164v7.1704102
	c0,0.0292969-0.0097656,0.0898438-0.0244141,0.1484375l-0.0126953,0.0126953
	c-0.0595703,0.0146484-0.1201172,0.0244141-0.1494141,0.0244141h-1.9199219c-0.4609375,0-0.8359375,0.375-0.8359375,0.8359375
	v1.7763672L5.9629893,9.4970703C5.754005,9.3691406,5.4395518,9.2802734,5.1983409,9.2802734H1.3936536
	c-0.0292969,0-0.0908203-0.0107422-0.1494141-0.0244141L1.2305677,9.2421875
	C1.2159193,9.1826172,1.2071302,9.1230469,1.2071302,9.0947266V1.9243164c0-0.0273438,0.0087891-0.0888672,0.0234375-0.1484375
	l0.0136719-0.0141602c0.0605469-0.0146484,0.1220703-0.0234375,0.1494141-0.0234375h11.2128906
	c0.0273438,0,0.0869141,0.0087891,0.1484375,0.0234375l0.0136719,0.0141602
	C12.7823257,1.831543,12.7930679,1.894043,12.7930679,1.9243164z"/>
</svg>
