<?xml version="1.0" encoding="utf-8"?>
<!-- Generator: Adobe Illustrator 21.0.0, SVG Export Plug-In . SVG Version: 6.00 Build 0)  -->
<svg version="1.1" id="Layer_1" xmlns="http://www.w3.org/2000/svg" xmlns:xlink="http://www.w3.org/1999/xlink" x="0px" y="0px"
	 viewBox="0 0 14 14" enable-background="new 0 0 14 14" xml:space="preserve">
<g>
	<path d="M13.384771,13.600098c-0.067871,0-0.136719-0.011719-0.203125-0.035645l-2.933594-1.055176
		c-1.077637,0.714844-2.32666,1.09082-3.632812,1.09082c-3.63916,0-6.600098-2.960938-6.600098-6.600098
		S2.97608,0.399902,6.61524,0.399902S13.215338,3.36084,13.215338,7c0,1.030762-0.241699,2.048828-0.701172,2.963379
		l1.405273,2.764648c0.111816,0.219238,0.078125,0.484375-0.084473,0.668945
		C13.718756,13.52832,13.553717,13.600098,13.384771,13.600098z M6.61524,1.600098C3.637701,1.600098,1.215338,4.022461,1.215338,7
		s2.422363,5.399902,5.399902,5.399902c1.156738,0,2.259766-0.360352,3.189453-1.04248
		c0.161621-0.117188,0.369629-0.148438,0.557617-0.082031l1.80127,0.647949l-0.862305-1.695312
		c-0.091797-0.179688-0.086426-0.393555,0.013184-0.568848C11.772955,8.854004,12.015142,7.93457,12.015142,7
		C12.015142,4.022461,9.592779,1.600098,6.61524,1.600098z"/>
</g>
</svg>
