<?xml version="1.0" encoding="utf-8"?>
<!-- Generator: Adobe Illustrator 18.1.1, SVG Export Plug-In . SVG Version: 6.00 Build 0)  -->
<!DOCTYPE svg PUBLIC "-//W3C//DTD SVG 1.1//EN" "http://www.w3.org/Graphics/SVG/1.1/DTD/svg11.dtd">
<svg version="1.1" id="Layer_1" xmlns="http://www.w3.org/2000/svg" xmlns:xlink="http://www.w3.org/1999/xlink" x="0px" y="0px"
	 viewBox="0 0 12 11.432434" enable-background="new 0 0 12 11.432434" xml:space="preserve">
<path d="M2.251878,11.432434c0-0.030111-0.001105-0.047095,0.000163-0.063901
	c0.027296-0.362028,0.055408-0.723997,0.082212-1.086061c0.026804-0.36206,0.05145-0.724282,0.079433-1.086249
	C2.417822,9.142706,2.401489,9.112068,2.356,9.082638C1.71083,8.665234,1.16355,8.147039,0.741179,7.501956
	C0.498562,7.131413,0.309966,6.735473,0.183354,6.310211c-0.08431-0.28318-0.147219-0.570515-0.163771-0.865706
	c-0.011996-0.213933-0.02828-0.429616-0.014028-0.642603C0.032557,4.398396,0.11066,4.003111,0.247651,3.620255
	c0.321056-0.897268,0.876499-1.623033,1.612042-2.21857C2.415428,0.95173,3.036869,0.620942,3.709475,0.383726
	C4.066761,0.257718,4.433112,0.16358,4.806417,0.10143c0.611128-0.101744,1.226592-0.130103,1.843877-0.070675
	C7.78658,0.140147,8.84015,0.489792,9.785038,1.139022c0.763247,0.524426,1.370805,1.188591,1.775696,2.028115
	c0.176988,0.366973,0.299879,0.751192,0.37115,1.152979c0.058277,0.328518,0.0826,0.659246,0.059434,0.990782
	c-0.015576,0.222919-0.048995,0.4461-0.094009,0.665141c-0.097216,0.473055-0.276267,0.916286-0.522363,1.33204
	c-0.477036,0.805907-1.137094,1.425671-1.937682,1.901744C9.016955,9.459762,8.572275,9.65532,8.105804,9.802114
	c-0.44211,0.139129-0.893056,0.232364-1.354236,0.281604c-0.457928,0.048894-0.915761,0.05691-1.373785,0.014481
	C5.172153,10.07915,4.967763,10.045512,4.76344,10.01437c-0.050704-0.007729-0.089835,0.004733-0.131755,0.029301
	c-0.771738,0.452293-1.543978,0.903728-2.316183,1.355225C2.299006,11.408539,2.281689,11.416778,2.251878,11.432434z"/>
</svg>
