<?xml version="1.0" encoding="utf-8"?>
<!-- Generator: Adobe Illustrator 19.2.1, SVG Export Plug-In . SVG Version: 6.00 Build 0)  -->
<svg version="1.1" id="Layer_1" xmlns="http://www.w3.org/2000/svg" xmlns:xlink="http://www.w3.org/1999/xlink" x="0px" y="0px"
	 viewBox="0 0 14 14" enable-background="new 0 0 14 14" xml:space="preserve">
<g>
	<path d="M5.1337848,6.5860329L4.811594,8.4474735C4.7733517,8.6711903,4.847446,8.8968191,5.0085411,9.0497885
		c0.1266775,0.1242867,0.2949433,0.1931229,0.4732475,0.1931229c0.0435009,0,0.0865231-0.0047798,0.1424527-0.0162525
		L7.4378786,8.8385c0.3623452-0.0774403,0.6950521-0.2581348,0.961792-0.522006l4.7602005-4.760201
		c0.7505035-0.7528939,0.7418995-1.9852495-0.0191212-2.7467477c-0.7275581-0.7256462-2.0010242-0.7237341-2.7304945,0
		L5.67061,5.5496688C5.3866615,5.8350515,5.2011867,6.193572,5.1337848,6.5860329z M6.3221617,7.689321l0.1510568-0.8738346
		V6.8150082c0.0191212-0.1152043,0.0740943-0.2198925,0.1591835-0.3045034l4.7377334-4.7396455
		c0.1089907-0.1080344,0.253355-0.1677878,0.4063234-0.1677878c0.1606178,0,0.2982893,0.0602314,0.4216204,0.1845187
		c0.2227612,0.2232389,0.2227612,0.5860622,0,0.8088231L7.4407468,7.3547015
		c-0.081265,0.0803089-0.1797385,0.1338482-0.2868166,0.1558371L6.3221617,7.689321z"/>
	<path d="M13.9639139,6.3207278c-0.0812645-0.2600474-0.3193226-0.4431319-0.5984907-0.4431319
		s-0.5172262,0.1830845-0.5984907,0.4431319H12.726778v6.3305221c0,0.0420666-0.0344181,0.0755281-0.0764847,0.0755281H1.3492386
		c-0.0420665,0-0.0764846-0.0334616-0.0764846-0.0755281V1.3497165c0-0.0425444,0.0344181-0.0769625,0.0764846-0.0769625H7.272481
		L7.3174157,1.269408C7.3451414,1.26893,7.3719106,1.2670178,7.3986802,1.2631936l0.0210333-0.0014341V1.2603254
		c0.2982893-0.051627,0.5258307-0.3126302,0.5258307-0.6257384c0-0.3126302-0.2275414-0.5736334-0.5258307-0.6252604
		L1.3492386,0.0002441c-0.7438113,0-1.3489945,0.6051832-1.3489945,1.3494724v11.3015337
		c0,0.7438107,0.6051832,1.3489943,1.3489945,1.3489943h11.301055c0.7438116,0,1.3499508-0.6051836,1.3499508-1.3489943V6.3207278
		H13.9639139z"/>
</g>
</svg>
