<?xml version="1.0" encoding="utf-8"?>
<!-- Generator: Adobe Illustrator 18.1.1, SVG Export Plug-In . SVG Version: 6.00 Build 0)  -->
<!DOCTYPE svg PUBLIC "-//W3C//DTD SVG 1.1//EN" "http://www.w3.org/Graphics/SVG/1.1/DTD/svg11.dtd">
<svg version="1.1" id="Layer_1" xmlns="http://www.w3.org/2000/svg" xmlns:xlink="http://www.w3.org/1999/xlink" x="0px" y="0px"
	 viewBox="0 0 12 12" enable-background="new 0 0 12 12" xml:space="preserve">
<g>
	<path fill="#19171C" d="M10.24585,1.757324C9.112061,0.624023,7.605225,0,6.002686,0S2.893311,0.624023,1.760498,1.757324
		C0.627197,2.890625,0.003174,4.397461,0.003174,6s0.624023,3.109375,1.757324,4.242188C2.893311,11.375977,4.400146,12,6.002686,12
		s3.109375-0.624023,4.243164-1.757812C12.584717,7.90332,12.584717,4.09668,10.24585,1.757324z M9.538818,9.535156
		C8.594482,10.479492,7.338623,11,6.002686,11c-1.335449,0-2.59082-0.520508-3.535156-1.464844S1.003174,7.334961,1.003174,6
		c0-1.335449,0.52002-2.591309,1.464355-3.535645S4.667236,1,6.002686,1c1.335938,0,2.591797,0.52002,3.536133,1.464355
		C11.488037,4.414062,11.488037,7.585938,9.538818,9.535156z"/>
	<path fill="#19171C" d="M7.982178,4.020508c-0.195312-0.195312-0.511719-0.195312-0.707031,0L6.00293,5.292542L4.730713,4.020508
		c-0.195312-0.195312-0.511719-0.195312-0.707031,0s-0.195312,0.511719,0,0.707031l1.272156,1.271973L4.023682,7.271484
		c-0.195312,0.195312-0.195312,0.511719,0,0.707031C4.121338,8.076172,4.249268,8.125,4.377197,8.125
		s0.255859-0.048828,0.353516-0.146484L6.00293,6.706482l1.272217,1.272034C7.372803,8.076172,7.500732,8.125,7.628662,8.125
		s0.255859-0.048828,0.353516-0.146484c0.195312-0.195312,0.195312-0.511719,0-0.707031L6.710022,5.999512l1.272156-1.271973
		C8.17749,4.532227,8.17749,4.21582,7.982178,4.020508z"/>
</g>
<circle fill="none" stroke="#010101" stroke-miterlimit="10" cx="743.952332" cy="424.230591" r="6.5"/>
<line fill="none" stroke="#19171C" stroke-linecap="round" stroke-linejoin="round" stroke-miterlimit="10" x1="743.952332" y1="421.51358" x2="743.952332" y2="426.947601"/>
<line fill="none" stroke="#19171C" stroke-linecap="round" stroke-linejoin="round" stroke-miterlimit="10" x1="746.669373" y1="424.230591" x2="741.235352" y2="424.230591"/>
</svg>
