<?xml version="1.0" encoding="utf-8"?>
<!-- Generator: Adobe Illustrator 19.2.1, SVG Export Plug-In . SVG Version: 6.00 Build 0)  -->
<svg version="1.1" id="Layer_1" xmlns="http://www.w3.org/2000/svg" xmlns:xlink="http://www.w3.org/1999/xlink" x="0px" y="0px"
	 viewBox="0 0 14 14" enable-background="new 0 0 14 14" xml:space="preserve">
<g>
	<path fill="#010101" d="M3.9480536,11.8987885H0.5833333C0.2611676,11.8987885,0,11.6376209,0,11.3154554v-0.0020351
		c0-0.3221655,0.2611665-0.583333,0.5833321-0.583333h3.3647203c0.322166,0,0.5833335,0.2611656,0.5833335,0.583333v0.0020351
		C4.5313854,11.6376209,4.2702193,11.8987885,3.9480536,11.8987885z"/>
	<path fill="#010101" d="M13.4532909,2.4390838c-0.6551113-0.6573944-1.9094105-0.6573944-2.569087,0L6.2196712,7.1047578
		C5.9526048,7.3729649,5.7768431,7.7096519,5.7140708,8.0794363L5.3979282,9.9112377
		c-0.0330982,0.191741,0.0308151,0.3857632,0.1711965,0.5215778c0.1095653,0.1050005,0.2522297,0.163208,0.4040236,0.163208
		l1.9082699-0.3960342c0.3435345-0.0730438,0.6562538-0.2430992,0.9050579-0.4907627l4.6850767-4.6850767
		c0.3435335-0.343534,0.5307083-0.801199,0.5284262-1.2873967C13.9965544,3.2494133,13.8025331,2.7883244,13.4532909,2.4390838z
		 M12.6441031,4.1978421L7.9613094,8.8817768C7.8711462,8.9707985,7.7604389,9.0312881,7.6371784,9.057538L6.6967392,9.2595501
		l0.1700544-0.982667C6.8896208,8.1456318,6.951251,8.0269346,7.0471201,7.9322076l4.6633921-4.6668158
		c0.1232605-0.1221197,0.2864685-0.1894574,0.4599476-0.1894574c0.1769028,0,0.3378277,0.0696197,0.4747849,0.2065768
		C12.8974743,3.5347412,12.8963327,3.9456122,12.6441031,4.1978421z"/>
</g>
</svg>
