<?xml version="1.0" encoding="utf-8"?>
<!-- Generator: Adobe Illustrator 18.1.1, SVG Export Plug-In . SVG Version: 6.00 Build 0)  -->
<!DOCTYPE svg PUBLIC "-//W3C//DTD SVG 1.1//EN" "http://www.w3.org/Graphics/SVG/1.1/DTD/svg11.dtd">
<svg version="1.1" id="Layer_1" xmlns="http://www.w3.org/2000/svg" xmlns:xlink="http://www.w3.org/1999/xlink" x="0px" y="0px"
	 viewBox="0 0 12 7.9422" enable-background="new 0 0 12 7.9422" xml:space="preserve">
<g>
	<defs>
		<rect id="SVGID_43_" x="-0.000011" y="0.000031" width="12" height="7.942169"/>
	</defs>
	<clipPath id="SVGID_2_">
		<use xlink:href="#SVGID_43_"  overflow="visible"/>
	</clipPath>
	<g clip-path="url(#SVGID_2_)">
		<defs>
			<rect id="SVGID_45_" x="0.013313" y="0.006149" width="11.973351" height="7.929932"/>
		</defs>
		<clipPath id="SVGID_4_">
			<use xlink:href="#SVGID_45_"  overflow="visible"/>
		</clipPath>
		<g clip-path="url(#SVGID_4_)">
			<defs>
				<rect id="SVGID_47_" x="-0.000011" width="12" height="7.9422"/>
			</defs>
			<clipPath id="SVGID_6_">
				<use xlink:href="#SVGID_47_"  overflow="visible"/>
			</clipPath>
			<path clip-path="url(#SVGID_6_)" fill="#010101" d="M3.833025,7.383331H0.2897c-0.152525,0-0.27635,0.12381-0.27635,0.276367
				c0,0.152573,0.123825,0.276398,0.27635,0.276398h3.543325c0.152575,0,0.276375-0.123825,0.276375-0.276398
				C4.1094,7.507141,3.9856,7.383331,3.833025,7.383331"/>
			<path clip-path="url(#SVGID_6_)" fill="#010101" d="M11.5644,0.401505c-0.526649-0.5271-1.446877-0.5271-1.97575,0
				L5.344025,4.646576c-0.205626,0.206055-0.34005,0.465195-0.388725,0.749527L4.667,7.063599
				C4.651525,7.153824,4.681601,7.246246,4.74835,7.309921c0.05175,0.049973,0.120275,0.077377,0.1915,0.077377
				c0.019449,0,0.0389-0.002228,0.057951-0.00618l1.624598-0.34845c0.263103-0.055267,0.503651-0.185715,0.696003-0.37764
				l4.262375-4.262787C12.124649,1.8479,12.124649,0.961746,11.5644,0.401505 M11.1894,2.001801L6.927551,6.26413
				c-0.116325,0.115875-0.261375,0.19455-0.420128,0.228165L5.282125,6.755402l0.218874-1.265106
				c0.0292-0.172028,0.11055-0.328125,0.2348-0.45195L9.98,0.792847c0.159649-0.159225,0.371899-0.247223,0.597401-0.247223
				c0.225975,0,0.437351,0.087997,0.61245,0.262695C11.518398,1.137299,11.518398,1.672806,11.1894,2.001801"/>
		</g>
	</g>
</g>
</svg>
