<?xml version="1.0" encoding="utf-8"?>
<!-- Generator: Adobe Illustrator 21.0.0, SVG Export Plug-In . SVG Version: 6.00 Build 0)  -->
<svg version="1.1" id="Layer_1" xmlns="http://www.w3.org/2000/svg" xmlns:xlink="http://www.w3.org/1999/xlink" x="0px" y="0px"
	 viewBox="0 0 14 14" enable-background="new 0 0 14 14" xml:space="preserve">
<g>
	<g>
		<g>
			<path d="M9.59122,10.44073c-0.071083-0.022149-0.143197-0.044299-0.216342-0.067478
				c0.036572-0.15762,0.071599-0.330179,0.102506-0.51201c0.150924-0.10302,0.301847-0.209645,0.450196-0.319362
				C9.935307,9.63666,9.940457,9.727317,9.945094,9.81746C9.829196,10.040498,9.711754,10.251173,9.59122,10.44073L9.59122,10.44073
				z M5.546143,3.362746c0.086022-0.066448,0.172043-0.12826,0.256005-0.187496
				c0.003605-0.043783,0.007727-0.084991,0.011847-0.125169C5.897956,3.01763,5.980887,2.985693,6.062788,2.956333
				c0.098384,0.129805,0.211706,0.291546,0.334815,0.479043C6.358455,3.476068,6.319307,3.517791,6.279644,3.560545
				C6.146749,3.605873,6.011793,3.653262,5.877352,3.701167c0.015453-0.145773,0.032451-0.281244,0.05151-0.403323
				C5.876836,3.38129,5.824296,3.469887,5.770726,3.562605C5.678524,3.565696,5.58632,3.569301,5.495148,3.572907
				C5.511631,3.499248,5.528629,3.429194,5.546143,3.362746L5.546143,3.362746z M12.452084,6.918479
				c-0.131866,0.160196-0.28588,0.329664-0.458954,0.506343c-0.003091,0.106111-0.007212,0.213251-0.010818,0.318847
				c-0.065417,0.092203-0.132895,0.183891-0.203979,0.277638c-0.067479-0.276608-0.143713-0.564034-0.23231-0.857126
				c-0.098384-0.156075-0.203979-0.315241-0.315757-0.476982c-0.26064-0.064903-0.54343-0.130835-0.841157-0.198828
				c-0.087567-0.084476-0.178226-0.168437-0.269913-0.253429c-0.044299,0.026785-0.087567,0.053055-0.131866,0.079325
				C10.05687,6.48219,10.124863,6.650113,10.18925,6.81855c0.100445-0.054601,0.200374-0.109716,0.296183-0.163287
				c0.130836,0.112292,0.257035,0.223038,0.378083,0.331209c-0.358509,0.250853-0.754107,0.514584-1.170821,0.780891
				c-0.198314-0.435259-0.416201-0.889062-0.64542-1.339774C8.999886,6.4348,8.952497,6.442527,8.905622,6.450253
				c0.2354,0.536734,0.462045,1.078104,0.658813,1.591658c0.217372-0.109716,0.428563-0.219432,0.633058-0.327088
				c-0.069539,0.242612-0.144743,0.484194-0.224585,0.720624c-0.216341,0.20295-0.439895,0.402808-0.664993,0.598031
				c0.010817,0.274549,0.016483,0.53725,0.015452,0.779861C9.198198,9.899361,9.073545,9.982807,8.94786,10.063678
				c-0.256519,0.344086-0.509949,0.641814-0.7505,0.872064c-0.20192,0.026271-0.402293,0.05048-0.601637,0.07366
				c-0.149894-0.234885-0.328118-0.555793-0.521796-0.936967c0.045844-0.174619,0.095294-0.36057,0.144228-0.558368
				C7.096076,9.17101,6.966787,8.796018,6.835952,8.407118c-0.43835,0.026785-0.872064,0.049964-1.29599,0.069023
				c-0.245188-0.230764-0.487285-0.466166-0.7232-0.702596C4.847667,7.394432,4.8863,7.007077,4.931113,6.621782
				c0.230249-0.287426,0.468225-0.574851,0.707232-0.857126C6.089572,5.68121,6.550587,5.600339,7.00851,5.523589
				c0.028845,0.117958,0.057176,0.236946,0.086021,0.356449c0.188011,0.120018,0.376023,0.242612,0.56558,0.365205
				C7.73274,6.144799,7.802794,6.04487,7.873362,5.947001C8.160273,6.021175,8.443578,6.09638,8.722762,6.1721
				c0.071083-0.043268,0.141137-0.086022,0.211705-0.12826C8.963313,5.93876,8.989584,5.835225,9.016884,5.73272
				C8.828357,5.697693,8.636225,5.661636,8.442548,5.626609C8.377131,5.519984,8.311197,5.413358,8.24578,5.308278
				C8.198906,5.286129,8.152547,5.263464,8.107218,5.240284C8.071161,5.370605,8.034074,5.5035,7.995956,5.637942
				C7.907359,5.529771,7.819277,5.423145,7.73068,5.31755c0.004636-0.087567,0.009272-0.174103,0.011847-0.25961
				C7.626629,4.970888,7.511247,4.885896,7.39741,4.80245C7.328387,4.770514,7.260394,4.739093,7.192915,4.708187
				C7.199612,4.790088,7.204248,4.873534,7.211459,4.95801c0.142683,0.090658,0.287426,0.18286,0.432168,0.277124
				C7.570484,5.31549,7.496824,5.397905,7.42162,5.481867C7.316025,5.347425,7.211459,5.21556,7.108954,5.086785
				c-0.07469-0.080871-0.147833-0.160711-0.221493-0.239006C6.716449,4.926589,6.54389,5.00849,6.371332,5.090906
				c-0.123624,0.178225-0.248793,0.3616-0.373447,0.548581c-0.182345-0.025755-0.36263-0.05048-0.54137-0.074689
				C5.45394,5.342789,5.452909,5.125932,5.45497,4.918347c0.225099,0.009272,0.452773,0.019574,0.683537,0.031936
				C6.069484,4.841082,6.001491,4.733941,5.934528,4.629891C5.89538,4.5449,5.856748,4.461454,5.81863,4.381098
				c0.172043-0.05254,0.344602-0.104565,0.516129-0.154015c0.097869-0.109716,0.193678-0.215312,0.288971-0.316271
				c0.075205-0.004636,0.150924-0.009787,0.225614-0.014423C6.834922,3.840244,6.819984,3.785128,6.805561,3.732073
				C6.855011,3.681593,6.9024,3.634204,6.949789,3.586299C6.985846,3.664595,7.022418,3.746495,7.05899,3.831487
				c0.209131,0.004121,0.418261,0.010302,0.626361,0.016998C7.738922,3.730012,7.788886,3.617721,7.83782,3.51264
				c0.07881,0.020604,0.158651,0.041723,0.237976,0.062327C8.04283,3.500793,8.009864,3.430224,7.977412,3.362746
				c0.115897-0.023695,0.227674-0.046359,0.339966-0.067993C8.276685,3.264362,8.235992,3.235517,8.195814,3.207186
				C8.0964,3.223154,7.993895,3.240668,7.890875,3.258696C7.847607,3.198944,7.805369,3.142283,7.763131,3.088713
				c-0.005666,0-0.010817-0.000515-0.015968-0.000515c0.00206-0.004121,0.004121-0.007726,0.006696-0.011847
				C7.73686,3.054201,7.718832,3.032567,7.700803,3.012478C7.739436,2.99651,7.778068,2.980542,7.816185,2.966119
				c0.030391-0.05151,0.054601-0.089627,0.081901-0.13135C7.861,2.831678,7.822882,2.828073,7.78528,2.824982
				C7.731709,2.857433,7.676594,2.894521,7.620448,2.933153C7.575119,2.991874,7.52773,3.058322,7.478281,3.129406
				C7.540092,3.170099,7.60242,3.211307,7.664747,3.254575c-0.05151,0.10508-0.105081,0.221493-0.162772,0.346147
				C7.408742,3.627507,7.314994,3.654293,7.2197,3.682108C7.16613,3.552818,7.113075,3.4328,7.06208,3.322053
				C6.955454,3.363776,6.846253,3.40653,6.736537,3.451859C6.685542,3.429194,6.635578,3.408075,6.585613,3.386441
				C6.596945,3.276725,6.609307,3.17525,6.62167,3.085108c0.091688-0.042238,0.181315-0.080871,0.268882-0.117443
				C6.965756,2.871341,7.03787,2.792016,7.104833,2.730719c0.169983-0.034512,0.33327-0.062842,0.48883-0.086022
				C7.989259,2.662726,8.40134,2.691571,8.819085,2.726598c0.579487-0.019574,1.281053-0.044814,1.590628-0.059752
				C9.472232,1.928709,8.290594,1.484693,7.00439,1.484693c-1.312474,0-2.516262,0.460499-3.463015,1.225937
				c0.063357,0.008757,0.126199,0.018028,0.190072,0.027815c0.037602,0.094263,0.080356,0.196253,0.130835,0.310605
				c0.016483,0.058206,0.034512,0.120533,0.054085,0.184921c-0.099929,0.095294-0.198313,0.198313-0.294122,0.30803
				C3.602157,3.596087,3.582583,3.650687,3.563524,3.707348C3.49038,3.748556,3.419296,3.790794,3.348212,3.833032
				C3.301854,3.987047,3.2591,4.149818,3.219438,4.318771C3.132386,4.306409,3.046364,4.294561,2.963433,4.283229
				C2.905227,3.946354,2.871745,3.656868,2.84496,3.385926C2.588956,3.680048,2.360766,3.999409,2.170695,4.344011
				c0.02833-0.023695,0.0546-0.046874,0.083446-0.070054C2.3278,4.646375,2.416397,5.054849,2.536931,5.499379
				C2.294834,5.655455,2.077462,5.8105,1.889965,5.959878C1.753464,6.086078,1.636021,6.210217,1.534547,6.329205
				c-0.02627,0.219432-0.044299,0.442471-0.044299,0.669114c0,0.470286,0.065418,0.924604,0.175649,1.360894
				c0.097869,0.035542,0.204495,0.070568,0.322968,0.10508c0.180285,0.206039,0.38581,0.415171,0.611938,0.621725
				c0.049449,0.147834,0.10199,0.293092,0.157105,0.43629c0.293607,0.182345,0.614514,0.35954,0.948813,0.525917
				c-0.10096,0.312666-0.17874,0.585668-0.236946,0.821069c-0.13032,0.004121-0.25652,0.007212-0.381174,0.009272
				c0.998263,1.00908,2.383881,1.634926,3.916303,1.634926c2.993759,0,5.425029-2.388517,5.505384-5.362702
				C12.48917,7.073009,12.473718,6.997289,12.452084,6.918479z"/>
		</g>
	</g>
	<g>
		<path d="M0.168191,6.827663c-0.00141,0.119117,0.0711,0.225074,0.175068,0.265472
			c0.028591,0.011109,0.059202,0.01702,0.091833,0.017733c0.150738,0.004723,0.278484-0.116163,0.284216-0.269501
			c0.065586-2.424657,1.476336-4.553996,3.684837-5.556645c1.525941-0.693474,3.232687-0.751277,4.801872-0.162491
			c1.566586,0.587777,2.81627,1.752457,3.509745,3.278398l-0.660626-0.24772
			c-0.143966-0.052948-0.300168,0.017989-0.355716,0.160944c-0.051938,0.141366,0.017988,0.300169,0.158345,0.354706
			l0.002599,0.00101l1.284864,0.481301c0.067579,0.026259,0.143668,0.022917,0.212242-0.007279
			c0.065974-0.031206,0.117215-0.086086,0.143474-0.153665l0.481301-1.284864
			c0.052948-0.143966-0.015968-0.305367-0.160944-0.355716c-0.143966-0.052948-0.300169,0.017989-0.355717,0.160944
			l-0.24772,0.660626c-0.754875-1.66049-2.109121-2.925632-3.816064-3.567945
			C7.692838-0.034143,5.835933,0.025146,4.175444,0.780022c-1.188271,0.540476-2.19366,1.40331-2.901122,2.492597
			C0.583167,4.335336,0.201764,5.563283,0.168191,6.827663z"/>
		<path d="M9.595236,12.716435c-3.15034,1.432457-6.87815,0.031833-8.311616-3.115908l0.660626,0.247721
			C2.088212,9.901196,2.244415,9.83026,2.299962,9.687304c0.051938-0.141367-0.017989-0.300169-0.158345-0.354706l-0.002599-0.00101
			L0.854154,8.850287C0.710188,8.797339,0.553985,8.868276,0.498438,9.011231l-0.481301,1.284864
			c-0.051938,0.141366,0.017989,0.300168,0.158345,0.354706l0.002599,0.00101
			c0.143966,0.052948,0.300169-0.017988,0.355716-0.160944l0.24772-0.660626c0.768599,1.686764,2.137994,2.912918,3.744297,3.537068
			c1.655688,0.643339,3.557224,0.646266,5.297114-0.143573c1.188271-0.540476,2.19366-1.40331,2.901122-2.492598
			c0.690144-1.060117,1.072557-2.290664,1.10512-3.552444c0.004723-0.150738-0.116163-0.278483-0.269502-0.284215
			c-0.150738-0.004722-0.278482,0.116163-0.284215,0.269501C13.214486,9.584448,11.803736,11.713787,9.595236,12.716435z"/>
	</g>
</g>
</svg>
