<?xml version="1.0" encoding="utf-8"?>
<!-- Generator: Adobe Illustrator 18.1.1, SVG Export Plug-In . SVG Version: 6.00 Build 0)  -->
<!DOCTYPE svg PUBLIC "-//W3C//DTD SVG 1.1//EN" "http://www.w3.org/Graphics/SVG/1.1/DTD/svg11.dtd">
<svg version="1.1" id="Layer_1" xmlns="http://www.w3.org/2000/svg" xmlns:xlink="http://www.w3.org/1999/xlink" x="0px" y="0px"
	 viewBox="0 0 12 12" enable-background="new 0 0 12 12" xml:space="preserve">
<path d="M11.555616,2.511828h-1.161865c-0.223694-0.859985-1.000061-1.5-1.928955-1.5s-1.705261,0.640015-1.928955,1.5H0.444289
	c-0.276367,0-0.5,0.223633-0.5,0.5s0.223633,0.5,0.5,0.5h6.091553c0.223694,0.859985,1.000061,1.5,1.928955,1.5
	s1.705261-0.640015,1.928955-1.5h1.161865c0.276367,0,0.5-0.223633,0.5-0.5S11.831984,2.511828,11.555616,2.511828z
	 M8.464796,4.011828c-0.365662,0-0.672058-0.206604-0.846496-0.5c-0.088745-0.149292-0.153503-0.313904-0.153503-0.5
	s0.064758-0.350708,0.153503-0.5c0.174438-0.293396,0.480834-0.5,0.846496-0.5s0.672058,0.206604,0.846497,0.5
	c0.088745,0.149292,0.153503,0.313904,0.153503,0.5s-0.064758,0.350708-0.153503,0.5
	C9.136854,3.805224,8.830458,4.011828,8.464796,4.011828z"/>
<path d="M11.555616,8.504992H5.464064c-0.223694-0.859985-1.000061-1.5-1.928955-1.5s-1.705261,0.640015-1.928955,1.5H0.444289
	c-0.276367,0-0.5,0.223633-0.5,0.5s0.223633,0.5,0.5,0.5h1.161865c0.223694,0.859985,1.000061,1.5,1.928955,1.5
	s1.705261-0.640015,1.928955-1.5h6.091552c0.276367,0,0.5-0.223633,0.5-0.5S11.831984,8.504992,11.555616,8.504992z
	 M3.535109,10.004992c-0.365662,0-0.672058-0.206604-0.846497-0.5c-0.088745-0.149292-0.153503-0.313904-0.153503-0.5
	s0.064758-0.350708,0.153503-0.5c0.174438-0.293396,0.480835-0.5,0.846497-0.5s0.672058,0.206604,0.846497,0.5
	c0.088745,0.149292,0.153503,0.313904,0.153503,0.5s-0.064758,0.350708-0.153503,0.5
	C4.207167,9.798388,3.900771,10.004992,3.535109,10.004992z"/>
</svg>
