<svg xmlns="http://www.w3.org/2000/svg" xmlns:xlink="http://www.w3.org/1999/xlink" viewBox="0 0 23 30" version="1.1" x="0px" y="0px"><title>47 - Chat Conversation (communication, dialogue, discussion)</title><desc>Created with Sketch.</desc><g stroke="none" stroke-width="1" fill="none" fill-rule="evenodd"><g transform="translate(-243.000000, -540.000000)"><g transform="translate(244.000000, 541.000000)"><path d="M8,17 L14.228,17 C15.207,17 16,16.207 16,15.228 L16,6.772 C16,5.793 15.207,5 14.228,5 L1.772,5 C0.793,5 0,5.793 0,6.772 L0,15.228 C0,16.207 0.793,17 1.772,17 L3,17 L3,22 L8,17 L8,17 Z" stroke="#000000" stroke-width="2" stroke-linecap="round" stroke-linejoin="round"/><path d="M19.2283,0 L6.7713,0 C5.7933,0 5.0003,0.793 5.0003,1.772 L5.0003,5 L14.2283,5 C15.2073,5 16.0003,5.793 16.0003,6.772 L16.0003,12 L19.2283,12 C20.2073,12 21.0003,11.207 21.0003,10.228 L21.0003,1.772 C21.0003,0.793 20.2073,0 19.2283,0 L19.2283,0 Z" stroke="#000000" stroke-width="2" stroke-linecap="round" stroke-linejoin="round"/><path d="M9,11 C9,11.552 8.552,12 8,12 C7.448,12 7,11.552 7,11 C7,10.448 7.448,10 8,10 C8.552,10 9,10.448 9,11" fill="#000000"/><path d="M13,11 C13,11.552 12.552,12 12,12 C11.448,12 11,11.552 11,11 C11,10.448 11.448,10 12,10 C12.552,10 13,10.448 13,11" fill="#000000"/><path d="M5,11 C5,11.552 4.552,12 4,12 C3.448,12 3,11.552 3,11 C3,10.448 3.448,10 4,10 C4.552,10 5,10.448 5,11" fill="#000000"/></g></g></g><text x="0" y="39" fill="#000000" font-size="5px" font-weight="bold" font-family="'Helvetica Neue', Helvetica, Arial-Unicode, Arial, Sans-serif">Created by Oliviu Stoian</text><text x="0" y="44" fill="#000000" font-size="5px" font-weight="bold" font-family="'Helvetica Neue', Helvetica, Arial-Unicode, Arial, Sans-serif">from the Noun Project</text></svg>