<?xml version="1.0" encoding="utf-8"?>
<!-- Generator: Adobe Illustrator 21.1.0, SVG Export Plug-In . SVG Version: 6.00 Build 0)  -->
<svg version="1.1" id="Layer_1" xmlns="http://www.w3.org/2000/svg" xmlns:xlink="http://www.w3.org/1999/xlink" x="0px" y="0px"
	 viewBox="0 0 14 14" enable-background="new 0 0 14 14" xml:space="preserve">
<g id="Arrow_Left_-_Grey">
</g>
<g>
	<g>
		<path d="M2.567871,14c-0.064453,0-0.129395-0.012207-0.191406-0.038086C2.189453,13.884766,2.067871,13.702148,2.067871,13.5
			v-2.45459H1.842285c-0.853027,0-1.546875-0.693848-1.546875-1.546875V4.501953c0-0.853027,0.693848-1.547363,1.546875-1.547363
			h7.360352c0.853027,0,1.546875,0.694336,1.546875,1.547363v4.996582c0,0.853027-0.693848,1.546875-1.546875,1.546875H5.729492
			l-2.808105,2.808105C2.825684,13.949219,2.697754,14,2.567871,14z M1.842285,3.95459
			c-0.301758,0-0.546875,0.245605-0.546875,0.547363v4.996582c0,0.301758,0.245117,0.546875,0.546875,0.546875h0.725586
			c0.276367,0,0.5,0.223633,0.5,0.5v1.747559l2.101074-2.101074c0.09375-0.09375,0.220703-0.146484,0.353516-0.146484h3.680176
			c0.301758,0,0.546875-0.245117,0.546875-0.546875V4.501953c0-0.301758-0.245117-0.547363-0.546875-0.547363H1.842285z"/>
	</g>
	<g>
		<path d="M12.157227,8.091309H10.25c-0.276367,0-0.5-0.223633-0.5-0.5V4.501953c0-0.301758-0.245605-0.547363-0.547363-0.547363
			H3.75c-0.276367,0-0.5-0.223633-0.5-0.5V1.547363C3.25,0.694336,3.943848,0,4.796387,0h7.36084
			c0.853027,0,1.547363,0.694336,1.547363,1.547363v4.996582C13.70459,7.396973,13.010254,8.091309,12.157227,8.091309z
			 M10.75,7.091309h1.407227c0.301758,0,0.547363-0.245605,0.547363-0.547363V1.547363C12.70459,1.245605,12.458984,1,12.157227,1
			h-7.36084C4.495117,1,4.25,1.245605,4.25,1.547363V2.95459h4.952637c0.853027,0,1.547363,0.694336,1.547363,1.547363V7.091309z"/>
	</g>
	<path d="M6.11335,7.000175c0,0.326182-0.264727,0.590909-0.590909,0.590909S4.931532,7.326357,4.931532,7.000175
		s0.264727-0.590909,0.590909-0.590909S6.11335,6.673994,6.11335,7.000175"/>
	<path d="M8.476987,7.000175c0,0.326182-0.264728,0.590909-0.590909,0.590909S7.295168,7.326357,7.295168,7.000175
		s0.264727-0.590909,0.590909-0.590909S8.476987,6.673994,8.476987,7.000175"/>
	<path d="M3.749714,7.000175c0,0.326182-0.264727,0.590909-0.590909,0.590909S2.567896,7.326357,2.567896,7.000175
		s0.264727-0.590909,0.590909-0.590909S3.749714,6.673994,3.749714,7.000175"/>
</g>
</svg>
