<svg id="Layer_1" data-name="Layer 1" xmlns="http://www.w3.org/2000/svg" viewBox="0 0 26 27"><defs><style>.cls-1{opacity:0.6;}.cls-2{fill:none;stroke:#19171d;stroke-linecap:round;stroke-linejoin:round;}.cls-3{fill:#19171d;}</style></defs><title>chat2</title><g id="Page-3" class="cls-1"><g id="Artboard"><g id="Group-2"><g id="noun_767098_cc" data-name="noun 767098 cc"><g id="Group"><path id="Combined-Shape" class="cls-2" d="M17.57,6.73l-.31,0H3a2,2,0,0,0-2,2V18.4a2,2,0,0,0,2,2h1.4v5.71l5.71-5.71h7.12a2,2,0,0,0,2-2V8.73a2,2,0,0,0-1.71-2,2,2,0,0,1,1.71,2v6H23a2,2,0,0,0,2-2V3a2,2,0,0,0-2-2H8.74a2,2,0,0,0-2,2V6.71H17.26l.31,0Z"/><path id="Shape" class="cls-3" d="M11.29,13.57a1.14,1.14,0,1,1-1.14-1.14,1.14,1.14,0,0,1,1.14,1.14"/><path id="Shape-2" data-name="Shape" class="cls-3" d="M15.86,13.57a1.14,1.14,0,1,1-1.14-1.14,1.14,1.14,0,0,1,1.14,1.14"/><path id="Shape-3" data-name="Shape" class="cls-3" d="M6.71,13.57a1.14,1.14,0,1,1-1.14-1.14,1.14,1.14,0,0,1,1.14,1.14"/></g></g></g></g></g></svg>
