<svg xmlns="http://www.w3.org/2000/svg" viewBox="0 0 47.95 38.1"><defs><style>.cls-1{fill:#000;}</style></defs><title>Asset 1</title><g id="Layer_2" data-name="Layer 2"><g id="Layer_1-2" data-name="Layer 1"><path class="cls-1" d="M1.4,22H34.6a1,1,0,0,1,.7,1.7l-9.6,9.6a1.45,1.45,0,0,0,0,2.1l2.2,2.2a1.45,1.45,0,0,0,2.1,0l17.5-17.6a1.45,1.45,0,0,0,0-2.1L30,.45a1.45,1.45,0,0,0-2.1,0l-2.1,2.1a1.45,1.45,0,0,0,0,2.1l9.6,9.6a1.06,1.06,0,0,1-.7,1.8H1.5A1.45,1.45,0,0,0,0,17.45v3A1.55,1.55,0,0,0,1.4,22Z"/></g></g></svg>