<?xml version="1.0" encoding="utf-8"?>
<!-- Generator: Adobe Illustrator 21.0.0, SVG Export Plug-In . SVG Version: 6.00 Build 0)  -->
<svg version="1.1" id="Layer_1" xmlns="http://www.w3.org/2000/svg" xmlns:xlink="http://www.w3.org/1999/xlink" x="0px" y="0px"
	 viewBox="0 0 14 14" enable-background="new 0 0 14 14" xml:space="preserve">
<g>
	<path d="M13.08297,1.258555H0.917031C0.410585,1.258555,0,1.669109,0,2.175585v7.703057
		c0,0.506446,0.410585,0.917031,0.917031,0.917031h2.047351l2.670299,1.596948
		c0.256104,0.177155,0.492528,0.279106,0.701803,0.326769c0.263948,0.060114,0.549445,0.011759,0.701804-0.326769l0.384715-1.596948
		h5.659967c0.506475,0,0.91703-0.410585,0.91703-0.917031V2.175586C14,1.66914,13.589445,1.258555,13.08297,1.258555z
		 M13.08297,9.878641H6.794535l-0.458082,1.923686L3.391351,9.878641h-2.47432V2.175585H13.08297V9.878641z"/>
	<g>
		<circle cx="3.852783" cy="6.319265" r="0.683563"/>
		<circle cx="7.10048" cy="6.319265" r="0.683563"/>
		<circle cx="10.147217" cy="6.319265" r="0.683563"/>
	</g>
</g>
</svg>
