<?xml version="1.0" encoding="utf-8"?>
<!-- Generator: Adobe Illustrator 18.0.0, SVG Export Plug-In . SVG Version: 6.00 Build 0)  -->
<!DOCTYPE svg PUBLIC "-//W3C//DTD SVG 1.1//EN" "http://www.w3.org/Graphics/SVG/1.1/DTD/svg11.dtd">
<svg version="1.1" xmlns="http://www.w3.org/2000/svg" xmlns:xlink="http://www.w3.org/1999/xlink" x="0px" y="0px"
	 viewBox="0 0 14 14" enable-background="new 0 0 14 14" xml:space="preserve">
<g id="Layer_6">
	<path fill="#323232" d="M14,7c0-1.853-0.729-3.536-1.908-4.789C12.044,2.16,12,2.105,11.95,2.056
		c-0.024-0.024-0.05-0.044-0.074-0.068c-1.192-1.165-2.797-1.899-4.582-1.973C7.196,0.011,7.099,0,7,0C6.999,0,6.999,0,6.998,0
		S6.997,0,6.996,0C6.922,0,6.85,0.009,6.776,0.011C6.61,0.017,6.444,0.02,6.281,0.037c-0.203,0.021-0.403,0.054-0.6,0.092
		C5.65,0.135,5.619,0.137,5.589,0.143C3.79,0.51,2.248,1.569,1.241,3.03C1.225,3.053,1.207,3.076,1.191,3.1
		C1.098,3.238,1.014,3.382,0.93,3.527c-0.032,0.056-0.067,0.11-0.098,0.167C0.769,3.813,0.713,3.937,0.656,4.06
		C0.615,4.149,0.571,4.236,0.533,4.327C0.491,4.428,0.457,4.532,0.42,4.635C0.378,4.752,0.334,4.869,0.297,4.99
		C0.271,5.078,0.251,5.17,0.228,5.26C0.192,5.398,0.157,5.535,0.13,5.675C0.113,5.763,0.102,5.853,0.089,5.942
		C0.067,6.086,0.045,6.229,0.032,6.376C0.022,6.479,0.021,6.583,0.016,6.688C0.011,6.792,0,6.895,0,7
		c0,0.029,0.004,0.056,0.004,0.085c0,0.03-0.003,0.059-0.003,0.09c0.002,0.112,0.016,0.22,0.024,0.331
		c0.006,0.089,0.01,0.178,0.019,0.265c0.021,0.194,0.052,0.383,0.087,0.571C0.138,8.37,0.141,8.399,0.147,8.427
		c0.661,3.25,3.554,5.59,6.839,5.573c0.002,0,0.004,0,0.007,0C6.995,14,6.997,14,7,14c0.888,0,1.735-0.173,2.518-0.476
		c0.066-0.025,0.134-0.046,0.199-0.073c0.043-0.018,0.084-0.041,0.127-0.061C12.286,12.305,13.997,9.88,14,7.064
		c0-0.011-0.002-0.022-0.002-0.033C13.998,7.021,14,7.011,14,7z M11.907,9.985c-0.14,0.231-0.292,0.452-0.459,0.658
		c-0.008,0.01-0.017,0.02-0.025,0.031c-0.153,0.184-0.32,0.353-0.493,0.516c-0.065,0.061-0.13,0.122-0.198,0.18
		c-0.135,0.117-0.277,0.224-0.422,0.327c-0.157,0.111-0.32,0.215-0.489,0.31c-0.041,0.024-0.082,0.047-0.124,0.07
		C8.893,12.505,7.976,12.75,7,12.75c-0.744,0-1.453-0.146-2.106-0.404c-0.1-0.04-0.198-0.082-0.295-0.127
		c-0.187-0.086-0.368-0.182-0.543-0.287c-0.101-0.06-0.202-0.12-0.299-0.186c-0.131-0.089-0.257-0.184-0.38-0.284
		c-0.035-0.028-0.067-0.058-0.101-0.086c-0.666-0.567-1.201-1.282-1.553-2.095C1.71,9.252,1.698,9.223,1.686,9.194
		C1.563,8.898,1.467,8.588,1.395,8.269c-0.009-0.04-0.022-0.079-0.03-0.119C1.29,7.778,1.25,7.394,1.25,7
		c0-0.751,0.148-1.466,0.41-2.124c0.223,0.327,0.375,0.637,0.607,0.864c0.326,0.318,0.387,0.956,1.066,0.878
		c0.34-0.039,0.582,0.235,0.833,0.434c0.125,0.099,0.239,0.214,0.37,0.305c0.183,0.127,0.201,0.272,0.106,0.462
		c-0.316,0.63-0.291,0.836,0.285,1.256c0.442,0.322,0.587,0.695,0.483,1.223c-0.092,0.465-0.109,0.943,0.042,1.407
		c0.115,0.355,0.319,0.64,0.673,0.788c0.066,0.028,0.187,0.04,0.219,0.004c0.047-0.052,0.058-0.159,0.048-0.239
		c-0.031-0.247-0.103-0.49-0.11-0.737c-0.003-0.103,0.098-0.23,0.185-0.31c0.309-0.284,0.717-0.474,0.754-0.985
		c0.008-0.105,0.192-0.22,0.318-0.29c0.399-0.223,0.387-0.223,0.339-0.667C7.864,9.133,7.977,8.96,8.075,8.839
		C8.31,8.547,8.283,8.285,7.919,8.217C7.126,8.068,6.599,7.464,5.924,7.119C5.517,6.911,5.174,6.795,4.755,7.06
		C4.452,7.252,4.323,7.163,4.221,6.832c-0.037-0.12-0.18-0.208-0.293-0.329c0.045-0.051,0.105-0.12,0.173-0.197
		C3.976,6.133,3.827,6.205,3.697,6.262C3.496,6.351,3.335,6.328,3.205,6.144C3.071,5.952,3.074,5.759,3.204,5.569
		c0.188-0.273,0.678-0.413,0.99-0.288c0.201,0.081,0.223,0.12,0.261,0.479C4.678,5.77,4.78,5.622,4.823,5.444
		c0.08-0.333,0.264-0.58,0.542-0.768c0.051-0.035,0.108-0.073,0.14-0.124C5.699,4.243,5.968,4.09,6.34,4.064
		c0.259-0.019,0.297-0.14,0.17-0.399C6.752,3.572,6.892,3.718,7.024,3.87c0.271-0.125,0.318-0.342,0.119-0.513
		C6.974,3.211,6.806,3.067,6.639,2.92C6.423,2.73,6.277,2.726,6.051,2.918c-0.095,0.081-0.18,0.174-0.275,0.255
		C5.615,3.308,5.426,3.337,5.26,3.21C5.166,3.139,5.071,2.999,5.074,2.892C5.075,2.81,5.22,2.718,5.318,2.656
		c0.08-0.05,0.186-0.058,0.277-0.092c0.157-0.058,0.236-0.158,0.159-0.331c-0.083-0.188-0.228-0.168-0.35-0.071
		C5.118,2.391,4.795,2.427,4.446,2.417C4.228,2.41,4.109,2.319,4.05,2.071C4.07,2.059,4.09,2.046,4.111,2.034
		c0.082,0.028,0.161,0.054,0.226,0.082c0.047,0.021,0.089,0.088,0.129,0.085c0.141-0.01,0.281-0.042,0.422-0.066
		C4.816,2.056,4.745,1.977,4.627,1.846C4.668,1.808,4.72,1.745,4.779,1.695c0.13-0.055,0.264-0.101,0.399-0.146
		c0.18-0.053,0.361-0.104,0.543-0.152C5.908,1.355,6.097,1.322,6.29,1.298c0.023,0.009,0.049,0.016,0.059,0.031
		C6.383,1.38,6.358,1.48,6.339,1.553c-0.013,0.048-0.059,0.088-0.092,0.13C6.057,1.929,6.07,1.964,6.303,2.156
		C6.422,2.255,6.501,2.4,6.606,2.517c0.079,0.089,0.16,0.19,0.262,0.236C6.907,2.771,7.06,2.66,7.071,2.594
		c0.02-0.13,0.001-0.28-0.051-0.401C6.988,2.12,6.871,2.072,6.783,2.037c-0.154-0.06-0.225-0.141-0.132-0.303
		c0.083-0.146,0.189-0.31,0.371-0.19c0.22,0.146,0.443,0.201,0.701,0.205c0.251,0.004,0.345,0.145,0.301,0.396
		C7.998,2.294,7.94,2.438,7.921,2.588c-0.029,0.227,0.103,0.32,0.31,0.232c0.024-0.01,0.054-0.021,0.068-0.041
		C8.6,2.37,9.061,2.325,9.505,2.23c0.129-0.028,0.255-0.1,0.418-0.175c0.406,0.241,0.783,0.526,1.117,0.856
		c-0.144,0.044-0.248,0.068-0.326,0.114c-0.14,0.083-0.278,0.177-0.39,0.293c-0.045,0.047-0.052,0.187-0.014,0.241
		c0.035,0.051,0.157,0.071,0.232,0.057c0.187-0.034,0.392-0.131,0.278,0.219c-0.013,0.041,0.029,0.123,0.07,0.157
		c0.211,0.177,0.084,0.242-0.088,0.303c-0.116,0.041-0.236,0.079-0.338,0.144c-0.045,0.029-0.074,0.125-0.065,0.183
		c0.005,0.037,0.091,0.075,0.147,0.089c0.332,0.083,0.517-0.008,0.646-0.31c0.08-0.188,0.308-0.276,0.523-0.152
		c0.209,0.12,0.424,0.244,0.554,0.448c0.026,0.06,0.05,0.122,0.075,0.183c0.014,0.05,0.036,0.093,0.04,0.151
		c-0.222,0.114-0.411,0.09-0.561-0.098c-0.146-0.183-0.303-0.185-0.491-0.07c-0.098,0.06-0.208,0.132-0.316,0.138
		C10.32,5.043,10.11,5.656,9.743,6.075C9.576,6.266,9.576,6.526,9.672,6.764C9.738,6.928,9.818,7.09,9.914,7.239
		c0.292,0.453,0.538,0.522,1.04,0.311c0.082-0.034,0.165-0.072,0.25-0.092c0.299-0.072,0.482,0.04,0.503,0.346
		c0.017,0.241,0.127,0.404,0.309,0.533c0.231,0.165,0.268,0.366,0.181,0.633c-0.078,0.239-0.102,0.495-0.158,0.742
		c-0.015,0.066-0.048,0.129-0.082,0.19C11.941,9.93,11.924,9.958,11.907,9.985z"/>
</g>
<g id="Status_Icons" display="none">
</g>
<g id="Grid" display="none">
</g>
<g id="Layer_4" display="none">
</g>
<g id="Layer_1">
</g>
<g id="Layer_5">
</g>
</svg>
