<?xml version="1.0" encoding="utf-8"?>
<!-- Generator: Adobe Illustrator 18.1.1, SVG Export Plug-In . SVG Version: 6.00 Build 0)  -->
<!DOCTYPE svg PUBLIC "-//W3C//DTD SVG 1.1//EN" "http://www.w3.org/Graphics/SVG/1.1/DTD/svg11.dtd">
<svg version="1.1" xmlns="http://www.w3.org/2000/svg" xmlns:xlink="http://www.w3.org/1999/xlink" x="0px" y="0px"
	 viewBox="0 0 12 12.000039" enable-background="new 0 0 12 12.000039" xml:space="preserve">
<g id="Layer_2" display="none">
</g>
<g id="Layer_1">
	<g>
		<path d="M3.643157,7.488986C2.62448,6.527514,3.268911,5.51413,3.268911,5.51413s0-0.020832-0.03112-0.015599
			C1.278475,5.799933,0.322215,4.703359,0,4.225249v4.162832c1.3356-0.852316,3.643157-0.878322,3.643157-0.878322
			S3.653523,7.499393,3.643157,7.488986z"/>
		<path d="M4.313533,8.065866C4.282354,8.045093,4.240809,8.03986,4.240809,8.03986H4.235576
			c-0.332582-0.041545-0.82633-0.020753-1.372011,0.067611C2.328271,8.190621,1.860527,8.32053,1.559085,8.455632L1.538312,8.466058
			c-0.753586,0.285843-1.288881,0.95624-1.32006,1.741005c0.436545,1.049796,1.465588,1.792976,2.671318,1.792976h2.681665
			C7.31224,10.378576,5.888257,9.126088,4.313533,8.065866z"/>
		<path d="M9.110448,0.000001H5.8519c0.670381,0.592476,1.101758,1.377242,1.101758,2.281528
			c0,0.670405-0.254671,1.242103-0.556056,1.689052h0.00517L6.387178,3.980946L6.329991,4.043327
			c0,0-0.213055,0.233893-0.452143,0.457362C5.644015,4.724169,5.30621,4.999605,5.30621,4.999605
			c-0.296238,0.223444-0.47292,0.514524-0.47292,0.836734c0,0.322222,0.202654,0.628861,0.498917,0.852282
			c0,0,0.493698,0.358631,0.821139,0.63408c0.327393,0.275436,0.717179,0.654785,0.717179,0.654785
			c0.446949,0.421025,0.73798,1.081052,0.73798,1.829409c0,0.644421-0.218286,1.226497-0.561298,1.642266L6.61067,12.000034
			h2.499778C10.70594,12.000034,12,10.705999,12,9.110483V4.646216V2.889613C12,1.294109,10.70594,0.000001,9.110448,0.000001z"/>
		<path d="M1.30446,2.801227c0.415732,1.507172,1.512307,2.562162,2.629713,2.21398
			C5.488085,4.531865,5.467312,3.279376,5.05154,1.772203C4.848887,1.034197,4.339539,0.337795,3.814611,0H2.88957
			c-0.436564,0-0.847143,0.09873-1.22133,0.275437C1.112174,0.873089,1.049796,1.86574,1.30446,2.801227z"/>
	</g>
</g>
</svg>
