<?xml version="1.0" encoding="utf-8"?>
<!-- Generator: Adobe Illustrator 18.1.1, SVG Export Plug-In . SVG Version: 6.00 Build 0)  -->
<!DOCTYPE svg PUBLIC "-//W3C//DTD SVG 1.1//EN" "http://www.w3.org/Graphics/SVG/1.1/DTD/svg11.dtd">
<svg version="1.1" xmlns="http://www.w3.org/2000/svg" xmlns:xlink="http://www.w3.org/1999/xlink" x="0px" y="0px"
	 viewBox="0 0 11.328506 12" enable-background="new 0 0 11.328506 12" xml:space="preserve">
<g id="Layer_2" display="none">
</g>
<g id="Layer_1">
	<g>
		<path fill-rule="evenodd" clip-rule="evenodd" d="M5.750732,6.816673L5.224548,6.376488
			C5.064941,6.234398,4.84668,6.046898,4.84668,5.699791c0-0.347168,0.218262-0.567688,0.407715-0.772034
			c0.61261-0.520081,1.225952-1.070801,1.225952-2.236206c0-1.195862-0.700806-1.827332-1.036438-2.126892h0.905579
			l0.932983-0.564636H4.275696c-0.787231,0-1.779541,0.125183-2.611023,0.864197
			C1.036743,1.448753,0.730591,2.250023,0.730591,2.97512c0,1.228333,0.876038,2.473206,2.421875,2.473206
			c0.146606,0,0.306152-0.016602,0.468262-0.031311c-0.073242,0.187439-0.14679,0.34491-0.14679,0.614563
			c0,0.486206,0.233582,0.785095,0.437683,1.069336C3.255677,7.147728,2.029724,7.226097,1.12384,7.824425
			C0.263428,8.376732,0,9.178734,0,9.746361c0,1.165955,1.022095,2.253662,3.138306,2.253662
			c2.50946,0,3.838318-1.497864,3.838318-2.978027C6.976624,7.936485,6.392883,7.39962,5.750732,6.816673z M3.838379,5.006126
			c-1.255127,0-1.823303-1.749085-1.823303-2.802918c0-0.410156,0.072937-0.835083,0.320496-1.165405
			C2.569031,0.722862,2.9776,0.517845,3.3573,0.517845c1.210998,0,1.839172,1.764404,1.839172,2.897339
			c0,0.284241-0.029541,0.788269-0.365112,1.149964C4.597778,4.816429,4.20343,5.006126,3.838379,5.006126z M3.853577,11.33712
			c-1.561401,0-2.568726-0.803406-2.568726-1.921082c0-1.119141,0.934326-1.496338,1.2547-1.621521
			c0.612915-0.221313,1.40155-0.252075,1.532348-0.252075c0.146179,0,0.219421,0,0.336365,0.01532
			c1.109314,0.849609,1.591003,1.276733,1.591003,2.078674C5.999268,10.612816,5.254395,11.33712,3.853577,11.33712z"/>
		<polygon fill-rule="evenodd" clip-rule="evenodd" points="9.594543,5.346642 9.594543,3.326744 8.438599,3.326744 
			8.438599,5.346642 6.704651,5.346642 6.704651,6.415794 8.438599,6.415794 8.438599,8.435631 9.594543,8.435631 
			9.594543,6.415794 11.328491,6.415794 11.328491,5.346642 		"/>
	</g>
</g>
</svg>
