<?xml version="1.0" encoding="utf-8"?>
<!-- Generator: Adobe Illustrator 19.2.1, SVG Export Plug-In . SVG Version: 6.00 Build 0)  -->
<svg version="1.1" id="Layer_1" xmlns="http://www.w3.org/2000/svg" xmlns:xlink="http://www.w3.org/1999/xlink" x="0px" y="0px"
	 viewBox="0 0 14 14" enable-background="new 0 0 14 14" xml:space="preserve">
<g>
	<g>
		<path fill="#020202" d="M13.4042759,7.6034818H0.5962092C0.2668145,7.6034818,0,7.3334126,0,7
			s0.2668145-0.6034818,0.5962091-0.6034818h12.8080664C13.7331858,6.3965182,14,6.6665874,14,7
			S13.7331858,7.6034818,13.4042759,7.6034818z"/>
	</g>
	<g>
		<path fill="#020202" d="M13.4042759,2.1637979H0.5962092c-0.3293946,0-0.5962091-0.270069-0.5962091-0.6034818
			s0.2668145-0.6034817,0.5962091-0.6034817h12.8080664C13.7331858,0.9568344,14,1.2269036,14,1.5603161
			S13.7331858,2.1637979,13.4042759,2.1637979z"/>
	</g>
	<g>
		<path fill="#020202" d="M13.4042759,13.0431652H0.5962092c-0.3293946,0-0.5962091-0.2700682-0.5962091-0.6029902
			c0-0.332921,0.2668145-0.6029911,0.5962091-0.6029911h12.8080664C13.7331858,11.837184,14,12.107254,14,12.4401751
			C14,12.773097,13.7331858,13.0431652,13.4042759,13.0431652z"/>
	</g>
</g>
</svg>
