<svg xmlns="http://www.w3.org/2000/svg" data-name="Layer 1" viewBox="0 0 100 125" x="0px" y="0px"><title>first_glyph_Set_random</title><path d="M29,33.55L9.91,41.06c-2.28.9-4.1-.37-4.05-2.82L6.27,17.75C6.32,15.3,8,14.44,10,15.84l7.23,5A43.62,43.62,0,0,1,42.41,6.73,44.43,44.43,0,0,1,51.07,6,44,44,0,0,1,92.47,38q0.59,2.09,1,4.26,0.2,1.11.34,2.22c0,0.11,0,.21,0,0.32,0.08,0.64.15,1.28,0.19,1.92,0,0,0,.05,0,0.08a44,44,0,0,1-33.63,46l-0.25.06q-1.09.25-2.2,0.45a44.53,44.53,0,0,1-7.85.7,43.65,43.65,0,0,1-25-7.89C25,86,24.92,86,24.84,85.89A43.82,43.82,0,0,1,6.9,57.76a3.34,3.34,0,1,1,6.57-1.18,37.33,37.33,0,0,0,39.42,30.6H53c0.58,0,1.16-.11,1.75-0.18h0.14q0.94-.12,1.89-0.29A37.33,37.33,0,0,0,86,60.14l0.07-.25c0.11-.41.21-0.81,0.31-1.22,0.05-.22.11-0.45,0.16-0.67s0.11-.55.17-0.82,0.14-.73.2-1.1c0-.13,0-0.27.06-0.41a37.53,37.53,0,0,0-4.3-23.84l-0.14-.26c-0.2-.36-0.42-0.72-0.64-1.07l-0.37-.6-0.47-.7c-0.21-.31-0.41-0.61-0.63-0.91l-0.26-.35c-0.3-.4-0.59-0.8-0.9-1.19l0,0A37.55,37.55,0,0,0,61.94,14.63l-0.1,0c-0.45-.15-0.91-0.29-1.37-0.42L60,14l-1-.26-0.88-.21-0.63-.13-1.28-.24-0.24,0A37.37,37.37,0,0,0,22.78,24.72l6.69,4.66C31.48,30.78,31.26,32.65,29,33.55ZM66.87,66.87a3,3,0,0,0,0-4.24L53,48.76V25a3,3,0,0,0-6,0V50a3,3,0,0,0,.88,2.12L62.63,66.87A3,3,0,0,0,66.87,66.87Z"/></svg>