<svg id="Layer_1" data-name="Layer 1" xmlns="http://www.w3.org/2000/svg" viewBox="0 0 25 24"><defs><style>.cls-1{fill:#757377;stroke:#fff;stroke-width:0.75px;}</style></defs><title>Home icon2</title><g id="Page-3"><g id="Artboard"><g id="Home-icon"><path class="cls-1" d="M19.86,21.64H15.94V16.28c0-.42,0-.54-.44-.54H10.16c-.42,0-.67.12-.67.54v5.36H5.79V10.51l7-6.8,7,6.79V21.8M13.26,1.49a.61.61,0,0,0-.44-.21.64.64,0,0,0-.45.22l-11,10.58a1,1,0,0,0-.33.74.94.94,0,0,0,.6.87,1,1,0,0,0,1.06-.24l1.15-1.11L3.63,23.7v-.28h7.62v-5.9h2.93v5.9H21.8V12.33l1.08,1.08a2.11,2.11,0,0,0,.23.19.92.92,0,0,0,.52.17.93.93,0,0,0,.47-.13,1,1,0,0,0,.48-.81,1,1,0,0,0-.35-.76Z"/></g></g></g></svg>