<?xml version="1.0" encoding="utf-8"?>
<!-- Generator: Adobe Illustrator 19.2.1, SVG Export Plug-In . SVG Version: 6.00 Build 0)  -->
<svg version="1.1" id="Layer_1" xmlns="http://www.w3.org/2000/svg" xmlns:xlink="http://www.w3.org/1999/xlink" x="0px" y="0px"
	 viewBox="0 0 14 14" style="enable-background:new 0 0 14 14;" xml:space="preserve">
<style type="text/css">
	.st0{fill:#010101;}
	.st1{fill:#020202;}
</style>
<path class="st0" d="M13.7293339,6.7148438l-6.4384761-6.159668c-0.0488281-0.0473633-0.140625-0.1357422-0.2910156-0.1357422
	c-0.1455078,0-0.2363281,0.0834961-0.296875,0.140625L0.2615609,6.722168
	c-0.1464844,0.140625-0.2177734,0.2988281-0.2109375,0.46875c0,0.246582,0.1494141,0.4643555,0.3808594,0.5546875
	c0.2285156,0.09375,0.4775391,0.0410156,0.6757813-0.1484375l0.5927734-0.5668945l-0.0009766,6.5498047h4.5273438V9.9951172
	h1.546875v3.1601562l0.0136719,0.3730469v0.0498047h4.507812V7.0244141l0.5751953,0.550293
	c0.0410156,0.0375977,0.0888672,0.0805664,0.1386719,0.1137695c0.1904297,0.1313477,0.4277344,0.1416016,0.6347656,0.0219727
	c0.1904297-0.1108398,0.2998047-0.2939453,0.3066406-0.5151367C13.9558964,6.9301758,13.7859745,6.7680664,13.7293339,6.7148438z
	 M5.0144906,9.2070312v3.1630859H2.9168344l-0.0009766-6.503418l4.0849609-3.9091797l4.0810542,3.9057617v6.5068359H8.9851933
	V9.2041016c0-0.2744141-0.1435547-0.4199219-0.4160156-0.4199219H5.4334359
	C5.1590219,8.7841797,5.0144906,8.9306641,5.0144906,9.2070312z"/>
</svg>
