<?xml version="1.0" encoding="utf-8"?>
<!-- Generator: Adobe Illustrator 21.0.0, SVG Export Plug-In . SVG Version: 6.00 Build 0)  -->
<svg version="1.1" id="Layer_1" xmlns="http://www.w3.org/2000/svg" xmlns:xlink="http://www.w3.org/1999/xlink" x="0px" y="0px"
	 viewBox="0 0 14 14" enable-background="new 0 0 14 14" xml:space="preserve">
<g>
	<g>
		<g>
			<path d="M10.403038,9.367331C9.466449,8.597374,8.458035,8.088857,8.251182,7.988303
				C8.228198,7.976811,8.213833,7.953827,8.213833,7.92797V6.471373c0.18387-0.123538,0.304535-0.330392,0.304535-0.565976V4.394213
				c0-0.752719-0.60907-1.36179-1.361789-1.36179H6.995692h-0.16376c-0.752719,0-1.36179,0.609071-1.36179,1.36179v1.511184
				c0,0.235584,0.120665,0.445311,0.304535,0.565976V7.92797c0,0.025856-0.014365,0.048841-0.037349,0.060333
				C5.530476,8.088857,4.522062,8.600246,3.585472,9.367331C3.415967,9.505233,3.318285,9.71496,3.318285,9.933307v1.03427h3.677407
				h3.674533v-1.03427C10.670224,9.71496,10.572543,9.505234,10.403038,9.367331z"/>
		</g>
		<g>
			<path d="M13.767291,8.347425c-0.784322-0.646419-1.631849-1.074492-1.804228-1.157808
				c-0.020111-0.008619-0.031603-0.02873-0.031603-0.051713V5.916889c0.152267-0.103427,0.255694-0.275805,0.255694-0.476914
				V4.172993c0-0.629181-0.511389-1.14057-1.140571-1.14057h-0.13503h-0.135031c-0.629181,0-1.140571,0.511389-1.140571,1.14057
				v1.266982c0,0.198235,0.100554,0.373487,0.255694,0.476914v1.221014c0,0.022984-0.011492,0.040221-0.031603,0.051713
				C9.753744,7.24133,9.386004,7.4252,8.937819,7.712497c0.448185,0.247076,1.157808,0.672276,1.827212,1.223887
				c0.235584,0.19249,0.390724,0.459676,0.448184,0.75272H14V8.821465C13.991383,8.637595,13.910939,8.462343,13.767291,8.347425z"
				/>
		</g>
		<g>
			<path d="M4.137083,7.189617C4.116971,7.180998,4.10548,7.160887,4.10548,7.137903V5.916889
				c0.152267-0.103427,0.255694-0.275805,0.255694-0.476914V4.172994c0-0.629181-0.511389-1.14057-1.140571-1.14057h-0.13503
				H2.944798c-0.629181,0-1.140571,0.511389-1.140571,1.14057v1.266982c0,0.198235,0.100554,0.373487,0.255695,0.476914v1.221014
				c0,0.022984-0.011492,0.040221-0.031603,0.051713C1.855941,7.272933,1.008414,7.701006,0.224092,8.347425
				C0.083316,8.465218,0,8.637596,0,8.821466v0.867639h2.786785c0.054586-0.293044,0.2126-0.56023,0.448184-0.75272
				C3.904371,8.384774,4.613996,7.959574,5.06218,7.712498C4.611123,7.425201,4.243382,7.24133,4.137083,7.189617z"/>
		</g>
	</g>
</g>
</svg>
