<?xml version="1.0" encoding="utf-8"?>
<!-- Generator: Adobe Illustrator 19.1.0, SVG Export Plug-In . SVG Version: 6.00 Build 0)  -->
<svg version="1.1" id="Layer_1" xmlns="http://www.w3.org/2000/svg" xmlns:xlink="http://www.w3.org/1999/xlink" x="0px" y="0px"
	 viewBox="0 0 12 12" enable-background="new 0 0 12 12" xml:space="preserve">
<path fill="#48484A" d="M10.417048,1.433682C9.353302,0.715074,7.660143,0.540524,5.999938,2.040345
	C4.339732,0.540404,2.646873,0.715134,1.582706,1.433562C0.21914,2.354451-0.606852,4.434525,0.548132,6.476064
	C1.515359,8.185849,3.423044,9.85578,5.78187,11.057701c0.060324,0.030612,0.12539,0.045259,0.189376,0.045259
	c0.010084,0,0.018667-0.006663,0.028691-0.007383c0.010024,0.00072,0.018608,0.007383,0.028692,0.007383
	c0.064045,0,0.129112-0.014647,0.189376-0.045259c2.358886-1.201802,4.266631-2.871612,5.233858-4.581517
	C12.606907,4.434646,11.780796,2.354451,10.417048,1.433682z M5.999512,10.043945
	c-2.075195-1.100586-3.73877-2.571289-4.580566-4.060059c-0.859863-1.519043-0.269043-3.05127,0.723145-3.72168
	c0.246582-0.166504,0.655273-0.365234,1.199219-0.365234c0.668945,0,1.337891,0.297852,1.988281,0.885742L6,3.388184
	l0.67041-0.605469c0.649902-0.587891,1.319824-0.885742,1.98877-0.885742c0.543945,0,0.951172,0.19873,1.198242,0.365234
	c0.992188,0.669922,1.583008,2.202148,0.724609,3.72168C9.740234,7.470703,8.078125,8.941406,5.999512,10.043945z"/>
</svg>
