<?xml version="1.0" encoding="utf-8"?>
<!-- Generator: Adobe Illustrator 21.0.0, SVG Export Plug-In . SVG Version: 6.00 Build 0)  -->
<svg version="1.1" id="Layer_1" xmlns="http://www.w3.org/2000/svg" xmlns:xlink="http://www.w3.org/1999/xlink" x="0px" y="0px"
	 viewBox="0 0 14 14" enable-background="new 0 0 14 14" xml:space="preserve">
<g display="none">
</g>
<g>
	<linearGradient id="SVGID_1_" gradientUnits="userSpaceOnUse" x1="4.202081" y1="2.563301" x2="10.260477" y2="12.170185">
		<stop  offset="0" style="stop-color:#7900FF"/>
		<stop  offset="0.624439" style="stop-color:#EC008C"/>
		<stop  offset="1" style="stop-color:#F8A73A"/>
	</linearGradient>
	<circle fill="url(#SVGID_1_)" cx="7" cy="7" r="7"/>
	<g id="Icons_5_">
		<g id="Color-_5_" transform="translate(-500.000000, -160.000000)">
			<path id="Instagram" fill="#FFFFFF" d="M507,162.934799c-1.104034,0-1.242493,0.004684-1.676056,0.02446
				c-0.432709,0.019745-0.728241,0.08847-0.986816,0.188965c-0.267303,0.103882-0.494019,0.242874-0.720032,0.468872
				c-0.225983,0.226013-0.36499,0.452728-0.468872,0.720047c-0.100494,0.258575-0.16922,0.554092-0.188965,0.986786
				c-0.019775,0.433594-0.024445,0.572037-0.024445,1.676086c0,1.104019,0.004669,1.242462,0.024445,1.676056
				c0.019745,0.432693,0.08847,0.72821,0.188965,0.986786c0.103882,0.267319,0.242889,0.494034,0.468872,0.720047
				c0.226013,0.225998,0.452728,0.36499,0.720032,0.468887c0.258575,0.100479,0.554108,0.169205,0.986816,0.18895
				c0.433563,0.019775,0.572021,0.02446,1.676056,0.02446s1.242493-0.004684,1.676056-0.02446
				c0.432709-0.019745,0.728241-0.08847,0.986786-0.18895c0.267334-0.103897,0.494049-0.242889,0.720062-0.468887
				c0.225983-0.226013,0.36499-0.452728,0.468872-0.720047c0.100494-0.258575,0.16922-0.554092,0.188965-0.986786
				c0.019775-0.433594,0.024445-0.572037,0.024445-1.676056c0-1.10405-0.004669-1.242493-0.024445-1.676086
				c-0.019745-0.432693-0.08847-0.72821-0.188965-0.986786c-0.103882-0.267319-0.242889-0.494034-0.468872-0.720047
				c-0.226013-0.225998-0.452728-0.36499-0.720062-0.468872c-0.258545-0.100494-0.554077-0.16922-0.986786-0.188965
				C508.242493,162.939484,508.104034,162.934799,507,162.934799z M507,163.667267c1.085449,0,1.21402,0.00415,1.6427,0.023712
				c0.396332,0.018066,0.611603,0.08429,0.754852,0.139969c0.189728,0.073746,0.325165,0.161835,0.467407,0.304092
				c0.142242,0.142242,0.230347,0.277664,0.304077,0.467422c0.055695,0.14325,0.121918,0.35849,0.139984,0.754852
				c0.019562,0.42865,0.023712,0.557236,0.023712,1.6427c0,1.085434-0.00415,1.21402-0.023712,1.64267
				c-0.018066,0.396362-0.08429,0.611603-0.139984,0.754852c-0.07373,0.189758-0.161835,0.32518-0.304077,0.467422
				c-0.142242,0.142258-0.277679,0.230347-0.467407,0.304092c-0.14325,0.055679-0.358521,0.121902-0.754852,0.139969
				c-0.428619,0.019562-0.557159,0.023712-1.6427,0.023712s-1.214081-0.00415-1.6427-0.023712
				c-0.396332-0.018066-0.611603-0.08429-0.754822-0.139969c-0.189758-0.073746-0.325195-0.161835-0.467438-0.304092
				c-0.142242-0.142242-0.230347-0.277664-0.304108-0.467422c-0.055664-0.14325-0.121887-0.35849-0.139954-0.754852
				c-0.019562-0.42865-0.023712-0.557236-0.023712-1.64267c0-1.085464,0.00415-1.21405,0.023712-1.6427
				c0.018066-0.396362,0.08429-0.611603,0.139954-0.754852c0.073761-0.189758,0.161835-0.32518,0.304108-0.467422
				c0.142242-0.142258,0.277679-0.230347,0.467438-0.304092c0.143219-0.055679,0.35849-0.121902,0.754822-0.139969
				C505.78598,163.671417,505.914551,163.667267,507,163.667267z M507,164.912476c-1.152924,0-2.087524,0.934601-2.087524,2.08754
				c0,1.152908,0.934601,2.087509,2.087524,2.087509s2.087524-0.934601,2.087524-2.087509
				C509.087524,165.847076,508.152924,164.912476,507,164.912476z M507,168.355072c-0.748383,0-1.355072-0.606689-1.355072-1.355057
				c0-0.748398,0.606689-1.355087,1.355072-1.355087s1.355072,0.606689,1.355072,1.355087
				C508.355072,167.748383,507.748383,168.355072,507,168.355072z M509.657837,164.829987
				c0,0.269424-0.218414,0.487823-0.487823,0.487823s-0.487823-0.218399-0.487823-0.487823
				c0-0.269409,0.218414-0.487823,0.487823-0.487823S509.657837,164.560577,509.657837,164.829987z"/>
		</g>
	</g>
</g>
</svg>
