<svg xmlns:dc="http://purl.org/dc/elements/1.1/" xmlns:cc="http://creativecommons.org/ns#" xmlns:rdf="http://www.w3.org/1999/02/22-rdf-syntax-ns#" xmlns:svg="http://www.w3.org/2000/svg" xmlns="http://www.w3.org/2000/svg" xmlns:sodipodi="http://sodipodi.sourceforge.net/DTD/sodipodi-0.dtd" xmlns:inkscape="http://www.inkscape.org/namespaces/inkscape" version="1.1" x="0px" y="0px" viewBox="0 0 1203.245 1336.383875" enable-background="new 0 0 2000 2000" xml:space="preserve"><path style="" d="M 47.164,0 C 21.082,0 0,21.13 0,47.164 l 0,114.935 c 0,129.868 98.854,237.07901 225.298,250.21701 12.682,177.674 148.914,321.7 323.07897,346.407 l 0,94.14 -98.19697,0 c -26.081,0 -47.164,21.13 -47.164,47.164 0,26.035 21.083,47.162 47.164,47.162 l 290.81197,0 c 26.082,0 47.164,-21.127 47.164,-47.162 0,-26.034 -21.082,-47.164 -47.164,-47.164 l -98.288,0 0,-92.612 c 179.882,-19.578 322.26,-166.148 335.245,-347.935 C 1104.317,399.17001 1203.245,291.963 1203.245,162.099 l 0,-114.935 C 1203.245,21.13 1182.163,0 1156.082,0 L 931.76997,0 928.18397,0 275.058,0 271.477,0 47.164,0 Z m 47.164,94.327 129.985,0 0,222.663 C 150.539,304.075 94.328,239.524 94.328,162.099 l 0,-67.772 z m 224.313,0 565.96497,0 0,290.85801 c 0,156.066 -126.917,282.987 -282.983,282.987 -156.06597,0 -282.98197,-126.921 -282.98197,-282.987 l 0,-290.85801 z m 660.29297,0 129.98403,0 0,67.772 c 0,77.415 -56.274,141.963 -129.98403,154.887 l 0,-222.659 z M 226.152,974.78501 c -26.082,0 -47.164,21.126 -47.164,47.15999 0,26.035 21.082,47.162 47.164,47.162 l 738.86897,0 c 26.082,0 47.16403,-21.127 47.16403,-47.162 0,-26.03399 -21.08203,-47.15999 -47.16403,-47.15999 l -738.86897,0 z" fill="#000000"/><text x="0" y="1084.1071" fill="#000000" font-size="5px" font-weight="bold" font-family="'Helvetica Neue', Helvetica, Arial-Unicode, Arial, Sans-serif">Created by logan</text><text x="0" y="1089.1071" fill="#000000" font-size="5px" font-weight="bold" font-family="'Helvetica Neue', Helvetica, Arial-Unicode, Arial, Sans-serif">from the Noun Project</text></svg>