<?xml version="1.0" encoding="utf-8"?>
<!-- Generator: Adobe Illustrator 21.0.0, SVG Export Plug-In . SVG Version: 6.00 Build 0)  -->
<svg version="1.1" id="Layer_1" xmlns="http://www.w3.org/2000/svg" xmlns:xlink="http://www.w3.org/1999/xlink" x="0px" y="0px"
	 viewBox="0 0 14 14" enable-background="new 0 0 14 14" xml:space="preserve">
<path d="M7.016724,2.398093c0,0,2.298357-2.314663,4.776755-0.925013c0,0,2.109064,0.946325,2.219963,3.749882
	c0,0,0.341346,2.209215-3.044276,5.211226c0,0-2.127263,1.826003-3.985916,2.536955h0.0335
	c-1.858653-0.710952-3.985916-2.536955-3.985916-2.536955c-3.385622-3.002012-3.044276-5.211226-3.044276-5.211226
	C0.097457,2.419405,2.206521,1.47308,2.206521,1.47308c2.478399-1.38965,4.776755,0.925013,4.776755,0.925013H7.016724z
	 M4.50232,2.320888C2.817623,1.904801,1.834683,3.308739,1.834683,3.308739C0.570038,4.942405,1.514699,6.740494,1.514699,6.740494
	c0.604525,1.324254,2.166077,2.71836,2.166077,2.71836c1.365623,1.281665,3.321522,2.297344,3.321522,2.297344
	c2.465315-1.28941,3.931224-2.885489,3.931224-2.885489c1.691491-1.724351,1.849448-3.049588,1.849448-3.049588
	c0.257207-1.669914-0.770745-2.70036-0.770745-2.70036c-0.791266-0.906835-1.839161-0.86757-1.839161-0.86757
	C8.996628,2.194169,8.020213,3.084322,8.020213,3.084322l-1.017346,0.90682C5.400846,2.337327,4.50232,2.320888,4.50232,2.320888z"
	/>
</svg>
