<?xml version="1.0" encoding="utf-8"?>
<!-- Generator: Adobe Illustrator 18.0.0, SVG Export Plug-In . SVG Version: 6.00 Build 0)  -->
<!DOCTYPE svg PUBLIC "-//W3C//DTD SVG 1.1//EN" "http://www.w3.org/Graphics/SVG/1.1/DTD/svg11.dtd">
<svg version="1.1" xmlns="http://www.w3.org/2000/svg" xmlns:xlink="http://www.w3.org/1999/xlink" x="0px" y="0px"
	 viewBox="0 0 14 14" enable-background="new 0 0 14 14" xml:space="preserve">
<g id="Layer_2" display="none">
</g>
<g id="Layer_1">
	<g>
		<path fill="#323232" d="M13.097,0H0.903C0.407,0,0,0.408,0,0.903v12.194C0,13.592,0.633,14,1.129,14h11.968
			C13.592,14,14,13.592,14,13.097V0.903C14,0.408,13.592,0,13.097,0z M4.281,11.751H2.124V5.262h2.157V11.751z M3.203,4.377H3.188
			c-0.724,0-1.192-0.499-1.192-1.122c0-0.637,0.482-1.121,1.221-1.121c0.738,0,1.193,0.485,1.206,1.121
			C4.423,3.878,3.955,4.377,3.203,4.377z M12.059,11.751H9.903V8.28c0-0.872-0.313-1.468-1.093-1.468
			c-0.597,0-0.952,0.402-1.106,0.79C7.646,7.741,7.632,7.935,7.632,8.128v3.623H5.474c0,0,0.029-5.88,0-6.489h2.158v0.922
			C7.918,5.742,8.428,5.11,9.576,5.11c1.419,0,2.483,0.928,2.483,2.921V11.751z"/>
		<path fill="#323232" d="M7.632,6.203v-0.02C7.628,6.19,7.623,6.197,7.619,6.203H7.632z"/>
	</g>
</g>
</svg>
