<svg id="Layer_1" data-name="Layer 1" xmlns="http://www.w3.org/2000/svg" xmlns:xlink="http://www.w3.org/1999/xlink" viewBox="0 0 17 24"><defs><style>.cls-1{fill:#fff;}.cls-2{mask:url(#mask);}.cls-3{mask:url(#mask-2-2);}.cls-4{fill:#757377;}</style><mask id="mask" x="-5" y="-1.62" width="27.35" height="27.74" maskUnits="userSpaceOnUse"><g id="mask-2"><rect id="path-1" class="cls-1" x="-3.07" y="4.5" width="23.48" height="15.49" transform="translate(-6.2 10.24) rotate(-47)"/></g></mask><mask id="mask-2-2" x="-4.97" y="-1.6" width="27.29" height="27.69" maskUnits="userSpaceOnUse"><g id="mask-4"><rect id="path-3" class="cls-1" x="-3.06" y="4.53" width="23.47" height="15.43" transform="translate(-6.2 10.24) rotate(-47)"/></g></mask></defs><title>Link</title><g id="Page-1"><g id="Account"><g id="icn-link"><g class="cls-2"><g id="Clipped"><g class="cls-3"><g id="Group"><g id="Clipped-2" data-name="Clipped"><g class="cls-2"><path id="Shape" class="cls-4" d="M7.38,2.32,2.84,7.19a5.34,5.34,0,0,0-1.26,5,.56.56,0,1,0,1.08-.29,4.23,4.23,0,0,1,1-4L8.19,3.09A4.24,4.24,0,0,1,14.4,8.88L9.87,13.74A4.22,4.22,0,0,1,5.9,15a.56.56,0,0,0-.23,1.09,5.33,5.33,0,0,0,5-1.59l4.54-4.86A5.36,5.36,0,0,0,7.38,2.32"/></g></g><g id="Clipped-3" data-name="Clipped"><g class="cls-2"><path id="Shape-2" data-name="Shape" class="cls-4" d="M14.74,12.8a4.26,4.26,0,0,1-1.06,3.74L9.15,21.41a4.24,4.24,0,1,1-6.21-5.79l4.54-4.86a4.23,4.23,0,0,1,3.89-1.28.56.56,0,1,0,.2-1.1A5.34,5.34,0,0,0,6.66,10L2.13,14.86A5.36,5.36,0,1,0,10,22.17l4.54-4.86a5.38,5.38,0,0,0,1.33-4.72.56.56,0,0,0-1.1.22"/></g></g></g></g></g></g></g></g></g></svg>