<?xml version="1.0" encoding="utf-8"?>
<!-- Generator: Adobe Illustrator 19.1.0, SVG Export Plug-In . SVG Version: 6.00 Build 0)  -->
<svg version="1.1" id="Layer_1" xmlns="http://www.w3.org/2000/svg" xmlns:xlink="http://www.w3.org/1999/xlink" x="0px" y="0px"
	 viewBox="0 0 12 12" style="enable-background:new 0 0 12 12;" xml:space="preserve">
<style type="text/css">
	.st0{fill:#FFFFFF;}
</style>
<g>
	<path d="M7.918926,3.314906L7.269451,4.442836C7.30302,4.75851,7.244609,5.086329,7.072917,5.380885l-2.82666,4.844238
		c-0.429688,0.735352-1.37793,0.983887-2.112305,0.555664l-0.312988-0.183105
		c-0.354492-0.206543-0.607422-0.540527-0.712891-0.941406C1.003093,9.255885,1.058757,8.840358,1.2653,8.485866l2.82666-4.844238
		C4.37907,3.150417,4.897624,2.876003,5.429363,2.876003c0.263672,0,0.53125,0.067871,0.774902,0.209961l0.312012,0.182617
		l0.000488,0.000488c0.093994,0.05481,0.179565,0.118469,0.257263,0.188721L7.274089,2.58932
		C7.191448,2.526271,7.113201,2.45901,7.02116,2.405299l-0.3125-0.183105c-1.213379-0.70752-2.772461-0.296387-3.47998,0.915527
		L0.401531,7.981959c-0.706543,1.211914-0.295898,2.772949,0.915039,3.479492l0.312988,0.183105
		c0.402344,0.234375,0.842774,0.345703,1.277832,0.345703c0.875977,0,1.72998-0.45166,2.202148-1.26123l2.827148-4.844238
		C8.416606,5.06161,8.370708,4.083095,7.918926,3.314906z"/>
	<path d="M10.68278,0.537624l-0.3125-0.182129c-0.584473-0.341309-1.270996-0.433105-1.928711-0.26123
		c-0.659179,0.17334-1.20996,0.591309-1.550781,1.17627l-2.82666,4.84375C3.605022,6.900416,3.623271,7.830531,4.019268,8.582484
		l0.705688-1.225586C4.730937,7.104762,4.791545,6.850917,4.92741,6.61819l2.827148-4.84375
		c0.206543-0.354492,0.541015-0.607422,0.941406-0.712891C8.8278,1.026881,8.961589,1.009792,9.094401,1.009792
		c0.269531,0,0.534668,0.070801,0.771973,0.209473l0.3125,0.182129c0.354492,0.206543,0.607422,0.541016,0.712891,0.941406
		c0.105469,0.400879,0.049316,0.816406-0.157227,1.170898l-2.826171,4.84375c-0.429688,0.73584-1.376953,0.984863-2.112793,0.555176
		l-0.3125-0.181641C5.388286,8.675624,5.302349,8.611049,5.224102,8.540004L4.723796,9.4089
		C4.80717,9.472682,4.886211,9.540492,4.979167,9.594752l0.3125,0.181641c0.402344,0.234863,0.842773,0.34668,1.27832,0.34668
		c0.875488,0,1.729492-0.452148,2.20166-1.261719l2.826172-4.84375C12.305339,2.806178,11.894694,1.244655,10.68278,0.537624z"/>
</g>
</svg>
