<?xml version="1.0" encoding="utf-8"?>
<!-- Generator: Adobe Illustrator 19.2.1, SVG Export Plug-In . SVG Version: 6.00 Build 0)  -->
<svg version="1.1" id="Layer_1" xmlns="http://www.w3.org/2000/svg" xmlns:xlink="http://www.w3.org/1999/xlink" x="0px" y="0px"
	 viewBox="0 0 14 14" enable-background="new 0 0 14 14" xml:space="preserve">
<g>
	<path fill="#0096E6" d="M10.510267,1.649911C10.23097,1.464364,9.859877,1.545419,9.679213,1.820809
		C9.496595,2.098153,9.573744,2.470223,9.850111,2.651864c1.474609,0.969727,2.354492,2.595703,2.354492,4.348633
		c0,2.869141-2.334961,5.204102-5.205079,5.204102c-2.869141,0-5.204102-2.334961-5.204102-5.204102
		c0-1.75293,0.878906-3.377929,2.351562-4.34668c0.276367-0.181641,0.353516-0.553711,0.170898-0.831055
		C4.136243,1.547372,3.764173,1.466317,3.486829,1.651864C1.676283,2.84327,0.596204,4.84327,0.596204,7.000496
		c0,3.53125,2.87207,6.403321,6.40332,6.403321s6.404297-2.87207,6.404297-6.403321
		C13.403822,4.842293,12.321791,2.841317,10.510267,1.649911z"/>
	<path fill="#0096E6" d="M7.000013,9.509652c1.257325,0,2.276612-1.019226,2.276612-2.276551
		c0-1.048584-0.71283-1.922485-1.677491-2.186829V1.195809c0-0.331055-0.268555-0.599609-0.599609-0.599609
		S6.399915,0.864754,6.399915,1.195809v3.850769C5.435743,5.311226,4.723402,6.184884,4.723402,7.233101
		C4.723402,8.490426,5.742689,9.509652,7.000013,9.509652z"/>
</g>
</svg>
