<?xml version="1.0" encoding="utf-8"?>
<!-- Generator: Adobe Illustrator 21.1.0, SVG Export Plug-In . SVG Version: 6.00 Build 0)  -->
<svg version="1.1" id="Layer_1" xmlns="http://www.w3.org/2000/svg" xmlns:xlink="http://www.w3.org/1999/xlink" x="0px" y="0px"
	 viewBox="0 0 14 14" enable-background="new 0 0 14 14" xml:space="preserve">
<g id="Arrow_Left_-_Grey">
</g>
<g>
	<path d="M5.867733,7.161194c0.905106-0.451453,1.532657-1.376838,1.532657-2.457003
		c0-1.521479-1.233357-2.754837-2.754837-2.754837c-1.521418,0-2.754775,1.233357-2.754775,2.754837
		c0,1.080165,0.627551,2.005549,1.532657,2.457003C1.456916,7.701765,0,9.486994,0,11.622952
		c0,0.236263,0.19149,0.427692,0.427754,0.427692h8.43572c0.236263,0,0.427692-0.191429,0.427692-0.427692
		C9.291166,9.486994,7.834373,7.701765,5.867733,7.161194z M2.891537,4.704191c0-0.967226,0.786852-1.754077,1.754016-1.754077
		c0.967226,0,1.754077,0.786852,1.754077,1.754077c0,0.967164-0.786852,1.754077-1.754077,1.754077
		C3.678389,6.458268,2.891537,5.671355,2.891537,4.704191z M1.045776,11.049886
		c0.275661-1.738563,1.784984-3.071788,3.599776-3.071788c1.814854,0,3.324177,1.333225,3.599899,3.071788H1.045776z"/>
	<path d="M11.964276,7.063281c-0.120148-0.056134-0.239073-0.083987-0.358671-0.123018
		c0.559079-0.369482,0.928927-1.002042,0.928927-1.722315c0-1.140452-0.924529-2.064982-2.065042-2.064982
		c-1.140452,0-2.064982,0.92453-2.064982,2.064982c0,0.734871,0.386646,1.3758,0.964783,1.7418
		c-0.526584,0.165103-0.886231,0.375041-0.917933,0.39477C8.217293,7.500135,8.14595,7.807986,8.290591,8.042539
		c0.144641,0.232598,0.452003,0.305897,0.688022,0.16321c0.013682-0.007818,1.345259-0.804321,2.605492-0.217939
		c0.051798,0.019546,1.142957,0.431968,1.373113,1.737647h-2.878649c-0.276577,0-0.50038,0.223803-0.50038,0.50038
		s0.223803,0.50038,0.50038,0.50038h3.421052c0.276577,0,0.50038-0.223803,0.50038-0.50038
		C14,7.797235,12.000925,7.074031,11.964276,7.063281z M10.46949,4.153725c0.586871,0,1.064283,0.477413,1.064283,1.064223
		S11.056361,6.28217,10.46949,6.28217c-0.58681,0-1.064223-0.477413-1.064223-1.064223S9.88268,4.153725,10.46949,4.153725z"/>
</g>
</svg>
