<?xml version="1.0" encoding="utf-8"?>
<!-- Generator: Adobe Illustrator 18.1.1, SVG Export Plug-In . SVG Version: 6.00 Build 0)  -->
<!DOCTYPE svg PUBLIC "-//W3C//DTD SVG 1.1//EN" "http://www.w3.org/Graphics/SVG/1.1/DTD/svg11.dtd">
<svg version="1.1" id="Layer_1" xmlns="http://www.w3.org/2000/svg" xmlns:xlink="http://www.w3.org/1999/xlink" x="0px" y="0px"
	 viewBox="0 0 14 14" enable-background="new 0 0 14 14" xml:space="preserve">
<path fill="#19171C" d="M12.7825193,9.1947079l-1.8515625-6.4980474c-0.029541-0.100708-0.0712891-0.1732178-0.0786133-0.1768799
	c-0.5664062-1.4903564-2.1157227-2.4915771-3.8529053-2.4915771S3.71416,1.0294242,3.1663084,2.4779105L1.2175779,9.1934872
	c-0.1791992,0.6290283-0.0515137,1.2949219,0.3502197,1.828125c0.4558105,0.6044922,1.2089844,0.9656982,2.0136719,0.9656982
	h1.581543v0.2474365c-0.0001221,0.003418-0.0019531,0.0062256-0.0019531,0.0096436s0.001709,0.0062256,0.0019531,0.0096436v0.095459
	c0.0809326,0.954834,0.8032227,1.6223145,1.7579346,1.6223145c0.845459,0,1.7478027-0.5571289,1.8377686-1.6223145h0.0142822
	v-0.3621826h1.6444092c0.8048096,0,1.5566406-0.3599854,2.0136719-0.9644775
	C12.8328123,10.4896297,12.9618406,9.8238583,12.7825193,9.1947079z M7.5966063,12.2515926
	c-0.0375977,0.4375-0.4580078,0.5537109-0.6756592,0.5537109c-0.1647949,0-0.5517578-0.0539551-0.5952148-0.5515137
	c0.0001221-0.003418,0.0019531-0.0061035,0.0019531-0.0093994c0-0.0137939-0.0068359-0.0252686-0.0078125-0.0386963v-0.2183838
	h1.2962646v0.2226562c-0.0023193,0.0147705-0.010376,0.0272217-0.0115967,0.0421143L7.5966063,12.2515926z M11.4272947,10.2647762
	c-0.2199707,0.2912598-0.597168,0.4644775-1.0098877,0.4644775H3.5814695c-0.4127197,0-0.789917-0.1732178-1.008667-0.4644775
	C2.4769773,10.1383114,2.3308592,9.8753719,2.4265623,9.538702l1.8220215-6.4182134l0.0761719-0.1535645
	C4.7068357,1.9620414,5.781909,1.2862601,6.9994383,1.2862601c1.2188721,0,2.2938232,0.6757812,2.6783447,1.6855469
	c0.0184326,0.0467529,0.0466309,0.1057129,0.0441895,0.0712891L11.573535,9.538702
	C11.6681395,9.8753719,11.5218992,10.1383114,11.4272947,10.2647762z"/>
</svg>
