<svg id="Layer_1" data-name="Layer 1" xmlns="http://www.w3.org/2000/svg" viewBox="0 0 18.1 22.52"><defs><style>.cls-1{fill:#727075;}</style></defs><title>notification2</title><g id="Page-3"><g id="Artboard"><g id="_150520_UCP_ICONS_SVG_Notifications" data-name="150520_UCP_ICONS_SVG_Notifications"><g id="Layer_1-2" data-name="Layer 1"><g id="Group"><path id="Shape" class="cls-1" d="M11,19.67a.58.58,0,0,0-.57.58,1.25,1.25,0,0,1-2.5,0,.58.58,0,1,0-1.15,0,2.4,2.4,0,0,0,4.8,0A.57.57,0,0,0,11,19.67Z" transform="translate(-0.15 -0.13)"/><path id="Shape-2" data-name="Shape" class="cls-1" d="M18.16,15.67,15.32,4.82a6.35,6.35,0,0,0-12.25,0L.23,15.67a2.52,2.52,0,0,0,2.44,3.15H15.73a2.52,2.52,0,0,0,2.44-3.15Zm-1.35,1.47a1.36,1.36,0,0,1-1.08.53H2.67A1.37,1.37,0,0,1,1.34,16L4.18,5.11a5.2,5.2,0,0,1,10,0L17,16A1.35,1.35,0,0,1,16.81,17.14Z" transform="translate(-0.15 -0.13)"/></g></g></g></g></g></svg>