<?xml version="1.0" encoding="utf-8"?>
<!-- Generator: Adobe Illustrator 21.0.0, SVG Export Plug-In . SVG Version: 6.00 Build 0)  -->
<svg version="1.1" id="Layer_1" xmlns="http://www.w3.org/2000/svg" xmlns:xlink="http://www.w3.org/1999/xlink" x="0px" y="0px"
	 viewBox="0 0 110.932114 73.942001" enable-background="new 0 0 110.932114 73.942001" xml:space="preserve">
<g>
	<g>
		<defs>
			<path id="SVGID_1_" d="M-669.520813,116.50396c-0.609619,0-1.192932-0.351944-1.462402-0.948013
				c-0.457397-1.011787-0.930176-2.037827-1.405212-3.049301c-0.379639-0.808136-0.036926-1.773308,0.764465-2.156006
				c0.802002-0.382057,1.75946-0.03756,2.138794,0.770576c0.481445,1.025391,0.960693,2.065681,1.424805,3.092041
				c0.368103,0.813652,0.011536,1.773643-0.795593,2.144363C-669.071472,116.456688-669.297913,116.50396-669.520813,116.50396"/>
		</defs>
		<clipPath id="SVGID_2_">
			<use xlink:href="#SVGID_1_"  overflow="visible"/>
		</clipPath>
		<g clip-path="url(#SVGID_2_)">
			<defs>
				<rect id="SVGID_3_" x="-1265.322021" y="-308.069092" width="1440" height="900"/>
			</defs>
			<clipPath id="SVGID_4_">
				<use xlink:href="#SVGID_3_"  overflow="visible"/>
			</clipPath>
		</g>
	</g>
	<g>
		<defs>
			<path id="SVGID_5_" d="M-648.663147,161.321365v-34.4674c0-0.638206-0.245789-1.218513-0.645508-1.656914
				c-0.006104-0.007133-0.012756-0.013947-0.019165-0.021072c-0.451111-0.483643-1.092041-0.78833-1.804443-0.78833h-49.627625
				c-0.711487,0-1.351685,0.30394-1.802734,0.786522c-0.006897,0.007866-0.014465,0.015427-0.021179,0.023308
				c-0.399353,0.438286-0.645081,1.018486-0.645081,1.656487v34.467506c0,0.638321,0.246033,1.218842,0.645691,1.657242
				c0.005432,0.006485,0.011658,0.012558,0.017273,0.018951c0.451111,0.484589,1.092834,0.790131,1.80603,0.790131h49.627625
				c0.712402,0,1.353333-0.304688,1.804443-0.78833c0.006287-0.007126,0.013062-0.01384,0.019165-0.021072
				C-648.908936,162.539886-648.663147,161.959579-648.663147,161.321365z M-691.12561,151.247421
				c-0.49176-0.47171-1.273254-0.45575-1.745483,0.035553l-7.888733,8.206879v-30.80426l14.80481,15.402069l-3.999146,4.160614
				c-0.472229,0.491196-0.456238,1.271866,0.035583,1.743576c0.239258,0.229523,0.547241,0.343643,0.854858,0.343643
				c0.32428,0,0.648254-0.126892,0.890686-0.379105l3.929749-4.088196l5.696899,5.926743
				c0.689819,0.717743,1.613403,1.112915,2.600464,1.112915c0.987122,0,1.910706-0.395386,2.600525-1.112915l5.696899-5.926743
				l14.854187,15.453171h-46.303284l8.007324-8.330368C-690.618042,152.499802-690.634033,151.719131-691.12561,151.247421z
				 M-675.126465,150.086807c-0.219849,0.228775-0.510986,0.354828-0.819519,0.354828
				c-0.308655,0-0.599609-0.126053-0.81958-0.354828l-22.332031-23.232841h46.30304L-675.126465,150.086807z
				 M-665.937012,144.087662l14.804871-15.402069v30.80426L-665.937012,144.087662z"/>
		</defs>
		<clipPath id="SVGID_6_">
			<use xlink:href="#SVGID_5_"  overflow="visible"/>
		</clipPath>
		<g clip-path="url(#SVGID_6_)">
			<defs>
				<rect id="SVGID_7_" x="-1265.322021" y="-308.069092" width="1440" height="900"/>
			</defs>
			<clipPath id="SVGID_8_">
				<use xlink:href="#SVGID_7_"  overflow="visible"/>
			</clipPath>
		</g>
	</g>
</g>
<g>
	<path fill="#40A3F5" d="M55.466026,0c-3.855469,0-7.003906,3.124512-7.018555,6.964844l-0.001953,0.562988l-0.518555,0.217773
		c-7.245117,3.043945-11.927734,10.062012-11.927734,17.878906v8.711426c-0.007812,0.577148-0.288086,13.874512-7.485352,17.112305
		c-0.396484,0.178711-0.619141,0.615723-0.527344,1.039551c0.091797,0.424316,0.475586,0.732422,0.913086,0.732422h17.75293
		l0.126953,0.697266c0.322266,1.764648,1.161133,3.391113,2.424805,4.702637c1.683594,1.749023,3.908203,2.711914,6.261719,2.711914
		s4.578125-0.962891,6.261719-2.711914c1.264648-1.312988,2.103516-2.938965,2.424805-4.702148l0.126953-0.697754h17.75293
		c0.4375,0,0.821289-0.308105,0.913086-0.73291c0.091797-0.42334-0.129883-0.86084-0.527344-1.039062v-0.000488
		c-7.196289-3.237305-7.476562-16.534668-7.484375-17.099121V25.625c0-7.817383-4.682617-14.835449-11.927734-17.878906
		L62.487511,7.52832l-0.001953-0.562988C62.470909,3.124512,59.322472,0,55.466026,0z"/>
	<path fill="#40A3F5" d="M12.768339,20.851892c-0.414062,0.000648-0.750525-0.334764-0.751173-0.748825l-0.010322-6.59716
		c-0.000648-0.414062,0.334764-0.750525,0.748826-0.751173s0.750525,0.334764,0.751172,0.748826l0.010322,6.597159
		C13.517813,20.514782,13.182401,20.851244,12.768339,20.851892z"/>
	<path fill="#40A3F5" d="M16.000479,17.548491l-6.473624,0.01013c-0.414062,0.000647-0.750525-0.334764-0.751173-0.748827
		c-0.000648-0.414061,0.334764-0.750525,0.748826-0.751171l6.473625-0.01013c0.414062-0.000647,0.750525,0.334764,0.751173,0.748827
		C16.749952,17.21138,16.414541,17.547844,16.000479,17.548491z"/>
	<path fill="#40A3F5" d="M2.7543,15.631714c-0.414062,0.000648-0.750525-0.334764-0.751173-0.748826l-0.006258-3.999995
		c-0.000648-0.414062,0.334764-0.750525,0.748826-0.751172c0.414062-0.000648,0.750525,0.334764,0.751172,0.748825
		l0.006258,3.999995C3.503774,15.294603,3.168362,15.631065,2.7543,15.631714z"/>
	<path fill="#40A3F5" d="M4.751169,13.628587l-3.999995,0.006258c-0.414062,0.000648-0.750525-0.334764-0.751172-0.748825
		c-0.000648-0.414062,0.334764-0.750525,0.748826-0.751173l3.999995-0.006258
		c0.414062-0.000648,0.750525,0.334764,0.751173,0.748826C5.500642,13.291476,5.165231,13.627939,4.751169,13.628587z"/>
	<g>
		<path fill="#40A3F5" d="M94.3675,64.723061c-0.414062,0.000648-0.750526-0.334763-0.751175-0.748825l-0.010315-6.59716
			c-0.000648-0.414059,0.334763-0.750523,0.748825-0.751171s0.750519,0.334763,0.751167,0.748825l0.010323,6.59716
			C95.116974,64.385956,94.781563,64.722412,94.3675,64.723061z"/>
		<path fill="#40A3F5" d="M97.59964,61.419662l-6.473625,0.010128c-0.414062,0.000648-0.750526-0.334763-0.751167-0.748825
			c-0.000648-0.414062,0.334763-0.750526,0.748825-0.751175l6.473625-0.010128
			c0.414055-0.000648,0.750519,0.334766,0.751167,0.748825C98.349113,61.08255,98.013702,61.419014,97.59964,61.419662z"/>
	</g>
	<g>
		<path fill="#FFFFFF" d="M55.466026,59.477539c-3.039062,0-5.785156-2.125-6.676758-5.167969l-0.319336-1.089355h13.993164
			l-0.319336,1.089355C61.252159,57.352539,58.506065,59.477539,55.466026,59.477539z"/>
	</g>
	<g>
		<path fill="#FFFFFF" d="M74.012901,41.748047H36.920128l0.208984-1.020996c0.704102-3.429688,0.736328-6.231934,0.738281-6.383789
			v-8.71875c0-9.67041,7.894531-17.537598,17.598633-17.537598c9.705078,0,17.599609,7.867188,17.599609,17.537598v8.736816
			c0.000977,0.111816,0.029297,2.918945,0.738281,6.365723L74.012901,41.748047z"/>
	</g>
	<g>
		<path fill="#FFFFFF" d="M60.807823,6.920898l-1.380859-0.285156c-2.592773-0.536133-5.326172-0.536133-7.920898,0
			l-1.380859,0.285156l0.392578-1.354004c0.632812-2.185547,2.667969-3.711914,4.948242-3.711914
			s4.31543,1.526367,4.949219,3.711426L60.807823,6.920898z"/>
	</g>
	<g>
		<path fill-rule="evenodd" clip-rule="evenodd" fill="#94CCFA" d="M70.740364,57.561104c0-0.5527-0.447197-1-1-1
			c-0.552704,0-1,0.4473-1,1c0,3.5186-2.862297,6.380898-6.380802,6.380898c-0.552799,0-1,0.447205-1,1c0,0.552704,0.447201,1,1,1
			C66.980667,65.942001,70.740364,62.182205,70.740364,57.561104z"/>
	</g>
	<g>
		<path fill-rule="evenodd" clip-rule="evenodd" fill="#94CCFA" d="M62.455162,72.942001c0,0.552704,0.4473,1,1,1
			c7.876999,0,14.285202-6.408203,14.285202-14.285095c0-0.552803-0.447304-1-1-1c-0.552704,0-1,0.447197-1,1
			c0,6.774399-5.510704,12.285095-12.285202,12.285095C62.902462,71.942001,62.455162,72.389305,62.455162,72.942001z"/>
	</g>
	<path fill="#F1F9FD" d="M78.799034,51.365723H32.132042l1.097656-1.379395c1.209961-1.521484,2.214844-3.473145,2.984375-5.800781
		l0.192383-0.583008h38.119141l0.192383,0.583008c0.769531,2.327148,1.774414,4.278809,2.984375,5.800781L78.799034,51.365723z"/>
	<path fill="#94CCFA" d="M55.466026,12.180664c-7.261719,0-13.168945,5.884766-13.168945,13.118164
		c0,0.566895,0.463867,1.027832,1.033203,1.027832c0.570312,0,1.03418-0.460938,1.03418-1.027832
		c0-6.100586,4.980469-11.063477,11.101562-11.063477c0.570312,0,1.03418-0.460938,1.03418-1.027344
		S56.036339,12.180664,55.466026,12.180664z"/>
</g>
</svg>
