<?xml version="1.0" encoding="utf-8"?>
<!-- Generator: Adobe Illustrator 18.1.1, SVG Export Plug-In . SVG Version: 6.00 Build 0)  -->
<!DOCTYPE svg PUBLIC "-//W3C//DTD SVG 1.1//EN" "http://www.w3.org/Graphics/SVG/1.1/DTD/svg11.dtd">
<svg version="1.1" xmlns="http://www.w3.org/2000/svg" xmlns:xlink="http://www.w3.org/1999/xlink" x="0px" y="0px"
	 viewBox="0 0 9.365853 12" enable-background="new 0 0 9.365853 12" xml:space="preserve">
<g id="Layer_2" display="none">
</g>
<g id="Layer_1">
	<path d="M3.904252,7.810458C3.561947,9.343698,3.226723,10.841175,2.036949,12
		c-0.03224-0.244267-0.068418-0.488099-0.096035-0.732881c-0.114485-1.01475,0.085567-1.99336,0.335567-2.96924
		C2.496338,7.439663,2.694824,6.57597,2.89284,5.712457C2.916736,5.60825,2.899453,5.483564,2.866099,5.379457
		C2.671561,4.772255,2.63626,4.164567,2.88643,3.569337c0.19781-0.470651,0.515177-0.836301,1.069327-0.883868
		C4.53415,2.635821,4.9614,2.979123,4.958715,3.555404C4.956779,3.971106,4.852061,4.391018,4.75572,4.800374
		C4.644748,5.271899,4.465094,5.72813,4.364554,6.201313c-0.15942,0.75029,0.460248,1.376297,1.229769,1.285641
		C6.05047,7.433218,6.41958,7.227145,6.716977,6.89004c0.570679-0.646877,0.820754-1.430415,0.905495-2.262226
		c0.047998-0.47117,0.065633-0.961293-0.010464-1.425552C7.471111,2.34268,6.959843,1.706931,6.131534,1.411113
		C4.755142,0.919556,3.447776,1.074971,2.355141,2.09131C1.496074,2.890391,1.196102,3.919532,1.431203,5.068717
		c0.0546,0.266886,0.231689,0.514945,0.379971,0.754908c0.087146,0.141027,0.145519,0.261938,0.088573,0.42791
		c-0.04986,0.145319-0.074182,0.299057-0.115613,0.447473C1.712663,6.95503,1.596294,7.009241,1.354431,6.898396
		C0.81688,6.652036,0.452854,6.236443,0.26107,5.69352C-0.303803,4.094407,0.063245,2.673122,1.21445,1.468997
		c1.165924-1.219522,2.665031-1.582292,4.305222-1.439766c1.064332,0.092488,1.99526,0.508977,2.74514,1.279579
		c0.71611,0.735903,1.101324,1.613227,1.101049,2.643944C9.365542,5.15274,9.10582,6.281775,8.372255,7.261188
		C7.724881,8.125527,6.860509,8.619911,5.760354,8.661933C5.024784,8.69003,4.405282,8.447224,3.904252,7.810458z"/>
</g>
</svg>
