<?xml version="1.0" encoding="utf-8"?>
<!-- Generator: Adobe Illustrator 18.1.1, SVG Export Plug-In . SVG Version: 6.00 Build 0)  -->
<!DOCTYPE svg PUBLIC "-//W3C//DTD SVG 1.1//EN" "http://www.w3.org/Graphics/SVG/1.1/DTD/svg11.dtd">
<svg version="1.1" id="Layer_1" xmlns="http://www.w3.org/2000/svg" xmlns:xlink="http://www.w3.org/1999/xlink" x="0px" y="0px"
	 viewBox="0 0 12 12" enable-background="new 0 0 12 12" xml:space="preserve">
<g>
	<path fill="#050505" d="M6,12c-3.308594,0-6-2.691406-6-6s2.691406-6,6-6s6,2.691406,6,6S9.308594,12,6,12z M6,0.5
		C2.967285,0.5,0.5,2.967285,0.5,6c0,3.032227,2.467285,5.5,5.5,5.5c3.032227,0,5.5-2.467773,5.5-5.5
		C11.5,2.967285,9.032227,0.5,6,0.5z"/>
</g>
<path fill="#050505" d="M4.623802,3.906057l3.532842,2.039687c0.080827,0.046666,0.080827,0.163329,0,0.209995L4.623802,8.195426
	c-0.080827,0.046665-0.18186-0.011666-0.18186-0.104998V4.011055C4.441942,3.917723,4.542975,3.859392,4.623802,3.906057z"/>
</svg>
