<?xml version="1.0" encoding="utf-8"?>
<!-- Generator: Adobe Illustrator 21.0.2, SVG Export Plug-In . SVG Version: 6.00 Build 0)  -->
<svg version="1.1" id="Layer_1" xmlns="http://www.w3.org/2000/svg" xmlns:xlink="http://www.w3.org/1999/xlink" x="0px" y="0px"
	 viewBox="0 0 14 14" enable-background="new 0 0 14 14" xml:space="preserve">
<g id="Arrow_Left_-_Grey">
</g>
<g>
	<g>
		<path fill="#231F20" d="M11.950615,13.940726H1.779c-0.989888,0-1.795301-0.804462-1.795301-1.794351V2.088384
			c0-0.989888,0.805413-1.795301,1.795301-1.795301h4.582868c0.322831,0,0.584329,0.261498,0.584329,0.583853
			S6.684699,1.460789,6.361868,1.460789H1.779c-0.345653,0-0.626644,0.281467-0.626644,0.627595v10.057992
			c0,0.345177,0.280991,0.626644,0.626644,0.626644h10.171615c0.345653,0,0.626644-0.281467,0.626644-0.626644V7.174114
			c0-0.322356,0.261497-0.583853,0.584329-0.583853s0.584329,0.261497,0.584329,0.583853v4.972262
			C13.745916,13.136264,12.940503,13.940726,11.950615,13.940726z"/>
	</g>
	<g>
		<g>
			<path fill="#231F20" d="M4.458657,10.168501c-0.151193,0-0.298583-0.058004-0.409363-0.167358
				C3.900003,9.854704,3.840572,9.6398,3.893347,9.437259l0.786395-3.020062c0.02615-0.100795,0.079401-0.193033,0.153571-0.267203
				l6.081488-6.040124c0.229167-0.226314,0.597641-0.225364,0.824906,0.001902l2.08913,2.08913
				c0.22774,0.227265,0.228216,0.596215,0.001426,0.824431L7.686491,9.209993C7.615174,9.28131,7.52674,9.33361,7.429273,9.361186
				l-2.813241,0.786395C4.564208,10.161845,4.510957,10.168501,4.458657,10.168501z M5.76995,6.866022L5.280236,8.748806
				l1.685948-0.471647l5.62458-5.662616l-1.26565-1.265649L5.76995,6.866022z"/>
		</g>
		<g>
			
				<rect x="10.248102" y="1.383815" transform="matrix(0.707518 -0.706695 0.706695 0.707518 0.965014 8.566808)" fill="#231F20" width="1.167939" height="3.467509"/>
		</g>
	</g>
</g>
</svg>
