<?xml version="1.0" encoding="utf-8"?>
<!-- Generator: Adobe Illustrator 19.2.1, SVG Export Plug-In . SVG Version: 6.00 Build 0)  -->
<svg version="1.1" id="Layer_1" xmlns="http://www.w3.org/2000/svg" xmlns:xlink="http://www.w3.org/1999/xlink" x="0px" y="0px"
	 viewBox="0 0 14 14" enable-background="new 0 0 14 14" xml:space="preserve">
<path d="M13.76332,6.127923c-1.5939617-1.5862341-3.1888895-3.1729507-4.7954102-4.7707767
	C8.9389286,1.327682,8.9089813,1.2977349,8.8761358,1.2726179c-0.1468372-0.1130265-0.3110638-0.152151-0.4743242-0.1183397
	C8.0917139,1.2175537,7.9052682,1.4518179,7.9043021,1.7822027C7.903336,2.2797122,7.903336,2.7777045,7.903336,3.2756968v0.5641661
	L7.8878794,3.8413119C7.077374,3.8828516,6.2977815,4.019063,5.5684233,4.2446327
	c-2.0460677,0.6332374-3.517343,1.7688146-4.4988375,3.47049c-0.8288602,1.4350486-1.1698714,2.8754106-1.0442866,4.400784
	c0.025117,0.3081665,0.2076981,0.5177965,0.5013735,0.5747929c0.0376754,0.0077286,0.0753509,0.0115919,0.1130264,0.0115919
	c0.2231547,0,0.4202263-0.130415,0.540015-0.3632298c0.0801811-0.1535997,0.1709887-0.3265209,0.2762868-0.4810867
	c0.6086036-0.9003468,1.4364978-1.5601511,2.5310183-2.0161209c0.9273963-0.3854485,1.9475317-0.5738258,3.1154714-0.5738258
	c0.2183247-0.0019321,0.4192605,0.0067625,0.6327548,0.0144901L7.903336,9.2873487v0.6143999
	c0,0.5361509,0,1.0732679,0.0009661,1.6094189c0.0009661,0.3419771,0.2134948,0.589283,0.5409808,0.62889
	c0.0231848,0.0028982,0.0463705,0.0048304,0.0695553,0.0048304c0.2163925,0,0.3699923-0.1284828,0.4704599-0.2299166
	c1.060709-1.0723019,2.121419-2.1426716,3.183094-3.2140074l1.5958939-1.6108675
	C14.0792141,6.7742019,14.078248,6.441402,13.76332,6.127923z M12.5036068,6.6568284
	c-0.9959841,1.0046792-2.0190182,2.0373731-3.0604067,3.0884223l-0.3342495,0.3371468c0-0.4221582,0-0.8462486-0.0009661-1.2684069
	c0-0.4076681-0.2202559-0.6433811-0.6356525-0.682023C7.699502,8.0614471,7.0203776,8.046957,6.3953514,8.0884962
	C4.739563,8.2005568,3.3629594,8.648798,2.1863256,9.4602699C1.9728312,9.6071072,1.7728615,9.7780962,1.579654,9.9432888
	c-0.0714868,0.0608597-0.1429737,0.1217203-0.2154264,0.1816149c0.0106264-0.0328455,0.0202868-0.065691,0.0289811-0.0995016
	c0.0598944-0.2028685,0.1207547-0.4134645,0.1951396-0.6134348c0.3284528-0.8848896,0.8220979-1.6755919,1.465479-2.350852
	C3.53105,6.5597415,4.1299934,6.1448283,4.8835025,5.793191c1.0713358-0.4994416,2.2025657-0.7525434,3.3676076-0.7525434
	c0.0743847,0,0.1478033,0.0009661,0.222188,0.0033813c0.0057964,0,0.0125589,0,0.0193214,0
	c0.1651917,0,0.3168602-0.0589285,0.4298859-0.1676078c0.117857-0.1139922,0.183548-0.2733884,0.1854792-0.4492073
	c0.0019321-0.2526188,0.0009661-0.5052376,0.0009661-0.7573736V3.2090402L12.5036068,6.6568284z"/>
</svg>
