<?xml version="1.0" encoding="utf-8"?>
<!-- Generator: Adobe Illustrator 18.1.1, SVG Export Plug-In . SVG Version: 6.00 Build 0)  -->
<!DOCTYPE svg PUBLIC "-//W3C//DTD SVG 1.1//EN" "http://www.w3.org/Graphics/SVG/1.1/DTD/svg11.dtd">
<svg version="1.1" id="Layer_1" xmlns="http://www.w3.org/2000/svg" xmlns:xlink="http://www.w3.org/1999/xlink" x="0px" y="0px"
	 viewBox="0 0 12 12" enable-background="new 0 0 12 12" xml:space="preserve">
<g>
	<path fill="#19171C" d="M5.99984-0.000166c-3.308594,0-6,2.691406-6,6s2.691406,6,6,6s6-2.691406,6-6
		S9.308434-0.000166,5.99984-0.000166z M5.99984,10.999833c-2.756836,0-5-2.243164-5-5s2.243164-5,5-5s5,2.243164,5,5
		S8.756676,10.999833,5.99984,10.999833z"/>
	<path fill="#19171C" d="M7.5057,4.40706L5.380272,6.532121L4.494469,5.646318c-0.195312-0.195312-0.511719-0.195312-0.707031,0
		s-0.195312,0.511719,0,0.707031l1.239258,1.239258c0.097656,0.097656,0.225586,0.146484,0.353516,0.146484
		s0.255859-0.048828,0.353516-0.146484L8.21273,5.114091c0.195312-0.195312,0.195312-0.511719,0-0.707031
		S7.701012,4.211748,7.5057,4.40706z"/>
</g>
</svg>
