<?xml version="1.0" encoding="utf-8"?>
<!-- Generator: Adobe Illustrator 18.1.1, SVG Export Plug-In . SVG Version: 6.00 Build 0)  -->
<!DOCTYPE svg PUBLIC "-//W3C//DTD SVG 1.1//EN" "http://www.w3.org/Graphics/SVG/1.1/DTD/svg11.dtd">
<svg version="1.1" id="Layer_1" xmlns="http://www.w3.org/2000/svg" xmlns:xlink="http://www.w3.org/1999/xlink" x="0px" y="0px"
	 viewBox="0 0 12 12" enable-background="new 0 0 12 12" xml:space="preserve">
<g>
	<g>
		<path d="M6,12c-3.308594,0-6-2.691406-6-6s2.691406-6,6-6s6,2.691406,6,6S9.308594,12,6,12z M6,1C3.243164,1,1,3.243164,1,6
			s2.243164,5,5,5s5-2.243164,5-5S8.756836,1,6,1z"/>
	</g>
	<path d="M9.233719,6.771301C9.178543,6.653137,9.081375,6.56427,8.956863,6.51886
		C8.71077,6.434875,8.42366,6.568176,8.336258,6.809387c-0.35791,0.981934-1.296875,1.64209-2.336914,1.64209
		c-1.040527,0-1.979004-0.659668-2.335938-1.643066C3.573074,6.564758,3.304031,6.430969,3.040848,6.519836
		C2.918289,6.56427,2.820633,6.654114,2.765457,6.772766C2.71077,6.89093,2.705399,7.023254,2.749832,7.14386
		c0.496582,1.36377,1.802246,2.280273,3.249512,2.280273c1.448242,0,2.754395-0.916504,3.250977-2.280273
		C9.294754,7.02179,9.288895,6.889465,9.233719,6.771301z"/>
</g>
</svg>
