<?xml version="1.0" encoding="utf-8"?>
<!-- Generator: Adobe Illustrator 18.1.1, SVG Export Plug-In . SVG Version: 6.00 Build 0)  -->
<!DOCTYPE svg PUBLIC "-//W3C//DTD SVG 1.1//EN" "http://www.w3.org/Graphics/SVG/1.1/DTD/svg11.dtd">
<svg version="1.1" id="Layer_1" xmlns="http://www.w3.org/2000/svg" xmlns:xlink="http://www.w3.org/1999/xlink" x="0px" y="0px"
	 viewBox="0 0 12 12" enable-background="new 0 0 12 12" xml:space="preserve">
<g>
	<g>
		<path d="M6,12c-3.308594,0-6-2.691406-6-6s2.691406-6,6-6s6,2.691406,6,6S9.308594,12,6,12z M6,1C3.243164,1,1,3.243164,1,6
			s2.243164,5,5,5s5-2.243164,5-5S8.756836,1,6,1z"/>
	</g>
	<path d="M9.233719,8.652832C9.178543,8.770996,9.081375,8.859863,8.956863,8.905273
		C8.71077,8.989258,8.42366,8.855957,8.336258,8.614746c-0.35791-0.981934-1.296875-1.64209-2.336914-1.64209
		c-1.040527,0-1.979004,0.659668-2.335938,1.643066C3.573074,8.859375,3.304031,8.993164,3.040848,8.904297
		C2.918289,8.859863,2.820633,8.77002,2.765457,8.651367C2.71077,8.533203,2.705399,8.400879,2.749832,8.280273
		C3.246414,6.916504,4.552078,6,5.999344,6C7.447586,6,8.753738,6.916504,9.25032,8.280273
		C9.294754,8.402344,9.288895,8.534668,9.233719,8.652832z"/>
</g>
</svg>
