<?xml version="1.0" encoding="utf-8"?>
<!-- Generator: Adobe Illustrator 18.1.1, SVG Export Plug-In . SVG Version: 6.00 Build 0)  -->
<!DOCTYPE svg PUBLIC "-//W3C//DTD SVG 1.1//EN" "http://www.w3.org/Graphics/SVG/1.1/DTD/svg11.dtd">
<svg version="1.1" id="Layer_1" xmlns="http://www.w3.org/2000/svg" xmlns:xlink="http://www.w3.org/1999/xlink" x="0px" y="0px"
	 viewBox="0 0 12 12" enable-background="new 0 0 12 12" xml:space="preserve">
<g>
	<g>
		<path d="M6,12c-3.308594,0-6-2.691406-6-6s2.691406-6,6-6s6,2.691406,6,6S9.308594,12,6,12z M6,1C3.243165,1,1,3.243164,1,6
			s2.243164,5,5,5s5-2.243164,5-5S8.756836,1,6,1z"/>
	</g>
	<path d="M8.161001,8.192951H3.839c-0.276142,0-0.5-0.223858-0.5-0.5V7.69295c0-0.276142,0.223857-0.5,0.5-0.5h4.322001
		c0.276142,0,0.499999,0.223857,0.499999,0.5v0.000001C8.661,7.969093,8.437143,8.192951,8.161001,8.192951z"/>
</g>
</svg>
