<?xml version="1.0" encoding="utf-8"?>
<!-- Generator: Adobe Illustrator 19.2.1, SVG Export Plug-In . SVG Version: 6.00 Build 0)  -->
<svg version="1.1" id="Layer_1" xmlns="http://www.w3.org/2000/svg" xmlns:xlink="http://www.w3.org/1999/xlink" x="0px" y="0px"
	 viewBox="0 0 14 14" enable-background="new 0 0 14 14" xml:space="preserve">
<g>
	<g>
		<path fill="#010101" d="M7.3087568,14H6.5271807c-0.7975264,0-1.4708662-0.5457363-1.6668296-1.2828779
			c-0.1971025-0.0717773-0.3885093-0.1515303-0.5730796-0.2415361c-0.6357422,0.3235674-1.5096023,0.2005205-2.016602-0.3041992
			l-0.5548491-0.5571289c-0.3258466-0.3235683-0.5058597-0.7565107-0.5058597-1.2179365
			c0-0.3098955,0.0808921-0.6072588,0.2335608-0.8681641C1.3535155,9.336751,1.2749019,9.1453438,1.2088207,8.9550772
			C0.5047199,8.7351885,0,8.0777979,0,7.3087564V6.5271807c0-0.7975264,0.5457352-1.4708652,1.2828773-1.6668291
			c0.0706382-0.1959639,0.1515301-0.3862309,0.2403976-0.5696616C1.1791992,3.6378584,1.2851558,2.8152676,1.8286136,2.269531
			l0.557129-0.5537105C2.9018562,1.1962898,3.815593,1.0823567,4.4661465,1.4458014
			c0.1925454-0.0911459,0.3850913-0.1708981,0.5776367-0.2381191c0.2210288-0.7029622,0.8784184-1.207682,1.6451821-1.207682
			h0.7838545c0.7986646,0,1.4708657,0.5457352,1.6668296,1.2828772c0.1971016,0.0706366,0.3885069,0.1515287,0.5719385,0.240396
			c0.6357422-0.3247067,1.5096035-0.2005208,2.0177412,0.3053389l0.5537109,0.555989
			c0.3258467,0.3235681,0.5058594,0.756511,0.5058594,1.2179358c0,0.3098958-0.0808916,0.6072593-0.2335606,0.8681645
			c0.0900059,0.1914058,0.1697588,0.3828125,0.2358398,0.5730796C13.4952803,5.2636709,14,5.9210601,14,6.6889629v0.7827144
			c0,0.7975268-0.5457354,1.4708657-1.2828779,1.6668296c-0.0706377,0.1948233-0.1503906,0.3850908-0.2392578,0.5696611
			c0.3429365,0.6516924,0.2358398,1.4754229-0.3076172,2.0211592l-0.5548496,0.5537109
			c-0.3133144,0.3133135-0.7576504,0.4944658-1.2202158,0.4944658l0,0c-0.3053379,0-0.6049805-0.0797529-0.8624668-0.2244463
			c-0.1914053,0.0900059-0.3839512,0.1697588-0.5764971,0.2369785C8.7351885,13.4941406,8.0766602,14,7.3087568,14z
			 M4.1744795,11.0844727l0.3645835,0.2062168c0.3121738,0.1765957,0.6528316,0.3201504,1.0117188,0.4261074l0.4169922,0.1230469
			l0.0011401,0.4352207c0,0.3076172,0.2506514,0.5582685,0.5582685,0.5582685h0.7815757
			c0.2962241,0,0.5423179-0.2324219,0.5594077-0.5286455l0.0239258-0.4158535l0.401042-0.1116533
			c0.33496-0.0934248,0.6767578-0.2347002,1.0162754-0.4181318l0.3816738-0.2073565l0.3076172,0.3064775
			c0.1936846,0.1936855,0.5992832,0.1936855,0.7906895,0l0.5548506-0.5537109
			c0.2096367-0.2096367,0.21875-0.546875,0.0216475-0.7667637l-0.281415-0.3121748l0.2062178-0.3657227
			c0.1765947-0.3133144,0.3201494-0.6539707,0.4261065-1.0117188l0.1230469-0.4169922l0.4352217-0.0011406
			c0.3076172,0,0.5582676-0.2506514,0.5582676-0.5582685V6.6889648c0-0.2950854-0.2312822-0.5400395-0.5263672-0.5571289
			l-0.4169922-0.0239258l-0.1116533-0.4021816c-0.0922852-0.328125-0.2324219-0.6710615-0.4204102-1.0185552L11.152832,4.305501
			l0.3053389-0.3064778c0.1070957-0.1082351,0.1640625-0.2449543,0.1640625-0.3964846
			c0-0.1481118-0.0581055-0.2871099-0.1629238-0.3919277l-0.5548506-0.555989
			c-0.185709-0.18571-0.5719395-0.1959639-0.7667637-0.0205076l-0.3110352,0.280273L9.4609375,2.7081695
			C9.151042,2.5327146,8.8103848,2.3902984,8.4480801,2.2832017L8.0299473,2.1601558V1.7237943
			c0-0.3076173-0.2495112-0.5571289-0.5571284-0.5571289h-0.783854c-0.295085,0-0.5400395,0.2312822-0.5571289,0.5263673
			L6.1079097,2.1088853L5.7068682,2.2205389c-0.3338208,0.0934255-0.6767573,0.2347007-1.0196939,0.419271L4.3066406,2.8460276
			L3.9990232,2.5406897c-0.1936855-0.1936853-0.5970056-0.1936853-0.7884114,0L2.6534832,3.0955389
			C2.4461257,3.3040349,2.4370117,3.6401353,2.6341143,3.8600252l0.2814126,0.3121746L2.7093093,4.5367832
			c-0.176595,0.3121743-0.31901,0.6539712-0.4261062,1.013998L2.1601558,5.9677734L1.7249343,5.9689121
			c-0.3076173,0-0.5582687,0.2506514-0.5582687,0.5582685v0.7815757c0,0.2962236,0.2312822,0.5411787,0.5263673,0.558269
			l0.4169922,0.0239244l0.1116536,0.4021821c0.0922856,0.331543,0.233561,0.6744785,0.4192708,1.020833L2.8460274,9.694499
			l-0.3053377,0.3064775c-0.1070964,0.1082354-0.1640625,0.2449541-0.1640625,0.3953447s0.0569658,0.2859697,0.1640625,0.3930664
			L3.09554,11.3465166c0.1834316,0.182292,0.5719395,0.1948242,0.7667649,0.0182295L4.1744795,11.0844727z"/>
	</g>
	<g>
		<path fill="#010101" d="M7,9.1704102c-1.1962895,0-2.1704106-0.9741211-2.1704106-2.1704106
			c0-1.1974287,0.9741211-2.1715498,2.1704106-2.1715498s2.1704102,0.9741211,2.1704102,2.1715498
			C9.1704102,8.1962881,8.1962891,9.1704102,7,9.1704102z M7,5.9951167c-0.5537105,0-1.0037441,0.4511719-1.0037441,1.0048828
			S6.4462886,8.0037432,7,8.0037432s1.0037432-0.4500322,1.0037432-1.0037436S7.5537109,5.9951167,7,5.9951167z"/>
	</g>
</g>
</svg>
