<?xml version="1.0" encoding="utf-8"?>
<!-- Generator: Adobe Illustrator 19.2.1, SVG Export Plug-In . SVG Version: 6.00 Build 0)  -->
<svg version="1.1" id="Layer_1" xmlns="http://www.w3.org/2000/svg" xmlns:xlink="http://www.w3.org/1999/xlink" x="0px" y="0px"
	 viewBox="0 0 14 14" style="enable-background:new 0 0 14 14;" xml:space="preserve">
<path d="M13.7636833,6.2057877C12.1697216,4.619554,10.5747929,3.0328372,8.9682722,1.435011
	C8.939291,1.4055468,8.9093447,1.3755996,8.8764992,1.3504827C8.729661,1.2374563,8.5654345,1.1983318,8.402174,1.232143
	C8.0920763,1.2954185,7.9056311,1.5296826,7.904665,1.8600675C7.9036989,2.3575768,7.9036989,2.8555694,7.9036989,3.3535616
	v0.5641661L7.8882422,3.9191766C7.0777369,3.9607162,6.2981443,4.0969276,5.5687861,4.3224974
	c-2.0460677,0.6332378-3.5173428,1.768815-4.498837,3.47049c-0.8288603,1.4350486-1.1698716,2.8754115-1.0442866,4.400784
	c0.025117,0.3081665,0.2076981,0.5177965,0.5013735,0.5747929c0.0376755,0.0077286,0.0753509,0.0115929,0.1130264,0.0115929
	c0.2231547,0,0.4202264-0.1304159,0.540015-0.3632307c0.0801811-0.1535997,0.1709887-0.3265209,0.2762867-0.4810867
	c0.6086038-0.9003468,1.436498-1.5601501,2.5310187-2.01612c0.9273961-0.3854494,1.9475319-0.5738268,3.1154711-0.5738268
	C7.3211784,9.3439608,7.5221143,9.3526554,7.7356086,9.360384l0.1680903,0.0048294v0.6143999
	c0,0.5361509,0,1.0732679,0.0009661,1.6094189c0.0009661,0.3419771,0.2134943,0.589283,0.5409813,0.628891
	c0.0231848,0.0028973,0.0463696,0.0048294,0.0695543,0.0048294c0.2163925,0,0.3699923-0.1284828,0.4704609-0.2299166
	c1.060709-1.0723019,2.121418-2.1426716,3.183094-3.2140074l1.5958939-1.6108675
	C14.0795774,6.852067,14.0786114,6.5192671,13.7636833,6.2057877z M12.5039701,6.7346935
	c-0.995985,1.0046787-2.0190182,2.0373735-3.0604067,3.0884218L9.109314,10.1602631c0-0.4221592,0-0.8462496-0.0009661-1.2684078
	c0-0.4076681-0.2202568-0.6433811-0.6356525-0.6820221c-0.77283-0.0705214-1.4519548-0.0850115-2.0769811-0.0434723
	c-1.6557884,0.1120605-3.032392,0.5603018-4.2090259,1.3717737c-0.2134942,0.1468372-0.4134641,0.3178263-0.6066716,0.4830189
	c-0.0714867,0.0608606-0.1429735,0.1217203-0.2154263,0.1816149c0.0106264-0.0328455,0.0202868-0.065691,0.0289811-0.0995016
	c0.0598943-0.2028685,0.1207547-0.4134645,0.1951396-0.6134338c0.3284527-0.8848906,0.822098-1.6755924,1.4654789-2.350853
	c0.4772227-0.5013733,1.0761662-0.9162865,1.8296752-1.2679243C5.9552011,5.3716145,7.086431,5.1185122,8.2514725,5.1185122
	c0.0743847,0,0.1478043,0.0009661,0.2221889,0.0033813c0.0057964,0,0.012558,0,0.0193205,0
	c0.1651926,0,0.3168602-0.058928,0.4298868-0.1676073c0.117857-0.1139927,0.183547-0.2733889,0.1854792-0.4492078
	C9.11028,4.2524595,9.109314,3.9998407,9.109314,3.747705V3.2869051L12.5039701,6.7346935z"/>
</svg>
