<?xml version="1.0" encoding="utf-8"?>
<!-- Generator: Adobe Illustrator 21.0.0, SVG Export Plug-In . SVG Version: 6.00 Build 0)  -->
<svg version="1.1" id="Layer_1" xmlns="http://www.w3.org/2000/svg" xmlns:xlink="http://www.w3.org/1999/xlink" x="0px" y="0px"
	 viewBox="0 0 14 14" enable-background="new 0 0 14 14" xml:space="preserve">
<path fill-rule="evenodd" clip-rule="evenodd" d="M4.327491,11.741936C4.542414,13.023695,5.656775,14,6.999725,14
	c1.342952,0,2.457313-0.976305,2.672235-2.258064h2.984283c0.272783,0,0.518479-0.189677,0.618737-0.479613
	c0.101171-0.290838,0.037935-0.505806-0.15988-0.720774c-1.276313-1.387355-1.533741-3.291355-1.783944-5.133935
	C10.98701,2.873161,10.597701,0,7,0S3.012988,2.873161,2.668844,5.407613c-0.250204,1.84258-0.508539,3.746581-1.783948,5.133935
	c-0.197815,0.214968-0.261044,0.429935-0.159878,0.720774c0.100262,0.289936,0.34595,0.479613,0.618737,0.479613H4.327491z
	 M2.06462,10.567116l0.233398-0.29248c0.943359-1.180664,1.121094-2.646972,1.292969-4.064941
	c0.02832-0.227539,0.055664-0.452148,0.084961-0.67334c0.371094-2.713867,0.780273-4.361816,3.323242-4.361816
	c2.544921,0,2.953125,1.648438,3.323242,4.362305c0.030273,0.222656,0.057617,0.449707,0.085938,0.678711
	c0.171875,1.412109,0.349609,2.872558,1.293945,4.059082l0.232422,0.29248H2.06462z M8.41807,11.741936
	c-0.206993,0.583645-0.764705,1.002862-1.418345,1.002862s-1.211351-0.419217-1.418344-1.002862H8.41807z"/>
</svg>
