<?xml version="1.0" encoding="utf-8"?>
<!-- Generator: Adobe Illustrator 19.2.1, SVG Export Plug-In . SVG Version: 6.00 Build 0)  -->
<svg version="1.1" id="Layer_1" xmlns="http://www.w3.org/2000/svg" xmlns:xlink="http://www.w3.org/1999/xlink" x="0px" y="0px"
	 viewBox="0 0 14 14" enable-background="new 0 0 14 14" xml:space="preserve">
<g>
	<g>
		<g>
			<path fill="#010101" d="M7.0439949,13.9719582c-1.638927,0-3.284164-0.5661955-4.615613-1.722106
				c-1.4215122-1.2333546-2.2779763-2.9468565-2.41049-4.8249965s0.4744111-3.695473,1.7089125-5.117559
				C3.298614,0.4939794,5.65977-0.3894463,8.0455933-0.0498437c0.3212452,0.0458922,0.5443964,0.3430445,0.4990778,0.6642903
				c-0.0458918,0.3212457-0.3401756,0.547265-0.66429,0.4990781c-1.989429-0.2839582-3.9559116,0.451465-5.2661352,1.9636145
				c-1.0291337,1.1851676-1.5345221,2.7001851-1.4243807,4.265111c0.110715,1.5649252,0.8237659,2.9927483,2.0083594,4.0207348
				c2.4466302,2.1225157,6.1633282,1.8615036,8.2887125-0.5862741c0.4313879-0.4979305,0.7727108-1.0566683,1.0147924-1.6590042
				c0.1204672-0.3017416,0.461791-0.4491701,0.7635326-0.3264084c0.3011675,0.1204662,0.4474497,0.4623642,0.3264084,0.7635317
				c-0.2902679,0.7239504-0.6998568,1.3939772-1.2172918,1.991724C10.9815493,13.1504869,9.0173616,13.9719582,7.0439949,13.9719582
				z"/>
		</g>
	</g>
	<path fill="#010101" d="M13.8238888,2.7011623c-0.2260199-0.2283139-0.6252823-0.2277403-0.8513012-0.0005736l-0.9356279,0.9358432
		l-0.0005741,0.0003586l-2.397296,2.3978698l-0.987257-0.9861097c-0.0146999-0.0146279-0.0349932-0.0202212-0.051055-0.0329852
		l-0.2610121-0.260725C8.1125984,4.528821,7.7162042,4.5282474,7.4890375,4.755414
		C7.3748808,4.8689971,7.3123527,5.0204415,7.3129263,5.1810646c0,0.1606226,0.0631018,0.312067,0.1766849,0.425077
		L8.433486,6.5500159l0.0077438-0.0106125L9.213439,7.3116121c0.1130095,0.1135831,0.2644539,0.1761112,0.4250765,0.1761112
		s0.312067-0.0625281,0.4250774-0.1761112l2.2652836-2.2657146L12.328949,5.045969l1.4943657-1.494653
		C13.9374714,3.4377329,14,3.2862885,14,3.1250918C14,2.964469,13.9368982,2.8135984,13.8238888,2.7011623z"/>
</g>
</svg>
