<?xml version="1.0" encoding="utf-8"?>
<!-- Generator: Adobe Illustrator 19.2.1, SVG Export Plug-In . SVG Version: 6.00 Build 0)  -->
<svg version="1.1" id="Layer_1" xmlns="http://www.w3.org/2000/svg" xmlns:xlink="http://www.w3.org/1999/xlink" x="0px" y="0px"
	 viewBox="0 0 14 14" enable-background="new 0 0 14 14" xml:space="preserve">
<g>
	<path fill="#010101" d="M13.2801008,1.4707031H7.6531482V0.7504883c0-0.3417969-0.2783203-0.6196289-0.6201172-0.6196289
		s-0.6191406,0.277832-0.6191406,0.6196289v0.7202148H0.7195542c-0.3417969,0-0.6191406,0.277832-0.6191406,0.6191406
		c0,0.3417969,0.2773438,0.6196289,0.6191406,0.6196289h0.288086l1.0673827,8.2182617
		C2.0847886,11,2.1092026,11.0732422,2.1472886,11.1425781c0.4169922,1.8349609,1.3867188,2.7265625,2.9658206,2.7265625h3.983398
		c1.3652344,0,2.4169922-1.1298828,2.7441406-2.9443359c0.0029297-0.0087891,0.0068359-0.0175781,0.0097656-0.0263672
		c0.0068359-0.0175781,0.0146484-0.0371094,0.0185547-0.0605469l1.0908203-8.128418h0.3203125
		c0.3417969,0,0.6201172-0.277832,0.6201172-0.6196289C13.900218,1.7485352,13.6218977,1.4707031,13.2801008,1.4707031z
		 M10.6648664,10.5019531l-0.0039062,0.0136719c-0.1357422,0.9755859-0.6269531,2.1142578-1.5644531,2.1142578h-3.983398
		c-0.8662109,0-1.5058596-0.3378906-1.8134768-1.9863281c-0.0029297-0.015625-0.0087891-0.0273438-0.0146484-0.0380859
		L2.2576401,2.7094727h9.4521484L10.6648664,10.5019531z"/>
	<path fill="#010101" d="M5.1394763,4.1264648c-0.015625,0-0.0322266,0.0004883-0.0488281,0.0014648
		C4.9256091,4.1425781,4.776195,4.2207031,4.6707263,4.3481445c-0.1064453,0.1264648-0.15625,0.2871094-0.1416016,0.4511719
		l0.4990234,5.7104492c0.0273438,0.3173828,0.2978516,0.5654297,0.6162109,0.5654297
		c0.015625,0,0.03125-0.0009766,0.0566406-0.0019531c0.3398438-0.03125,0.5917969-0.3330078,0.5615234-0.671875L5.7634997,4.6904297
		C5.736156,4.3613281,5.4715075,4.1264648,5.1394763,4.1264648z"/>
	<path fill="#010101" d="M8.7976789,4.1279297c-0.3525391-0.0141602-0.6396484,0.2255859-0.6689453,0.5625l-0.4999995,5.7109375
		c-0.0292969,0.3398438,0.2226562,0.640625,0.5624995,0.671875h0.0048828
		c0.0175781,0.0009766,0.0341797,0.0019531,0.0507812,0.0019531c0.3183594,0,0.5888672-0.2480469,0.6162109-0.5654297l0.5-5.7104492
		C9.3924055,4.4594727,9.1404524,4.1582031,8.7976789,4.1279297z"/>
</g>
</svg>
