<?xml version="1.0" encoding="utf-8"?>
<!-- Generator: Adobe Illustrator 18.1.1, SVG Export Plug-In . SVG Version: 6.00 Build 0)  -->
<!DOCTYPE svg PUBLIC "-//W3C//DTD SVG 1.1//EN" "http://www.w3.org/Graphics/SVG/1.1/DTD/svg11.dtd">
<svg version="1.1" xmlns="http://www.w3.org/2000/svg" xmlns:xlink="http://www.w3.org/1999/xlink" x="0px" y="0px"
	 viewBox="0 0 12 9.943545" enable-background="new 0 0 12 9.943545" xml:space="preserve">
<g id="Layer_2" display="none">
</g>
<g id="Layer_1">
	<path d="M0.73938,0.515807c0,0,1.677709,2.388525,5.232248,2.616115c0,0-0.369642-1.962177,1.279561-2.843762
		c1.64926-0.881374,2.900506,0.540315,2.900506,0.540315s0.73938-0.056744,1.50719-0.625527c0,0,0.14209,0.511886-0.966836,1.364945
		c0,0,0.597175-0.056878,1.307952-0.341212c0,0-0.227436,0.71095-1.165861,1.279637c0,0,0.455084,2.985775-2.559198,5.829288
		C5.260678,11.179272,0.597386,9.501429,0,8.932858c0,0,2.246569,0.085346,3.526129-1.137452
		c0,0-1.450253-0.056936-2.18946-1.677709c0,0,0.596905,0.085308,1.137163-0.113776c0,0-1.848036-0.45495-2.01894-2.360114
		c0,0,0.369757,0.227513,0.995361,0.113642C1.450253,3.757449-0.17052,2.648408,0.73938,0.515807z"/>
</g>
</svg>
