<svg xmlns:dc="http://purl.org/dc/elements/1.1/" xmlns:cc="http://creativecommons.org/ns#" xmlns:rdf="http://www.w3.org/1999/02/22-rdf-syntax-ns#" xmlns:svg="http://www.w3.org/2000/svg" xmlns="http://www.w3.org/2000/svg" xmlns:sodipodi="http://sodipodi.sourceforge.net/DTD/sodipodi-0.dtd" xmlns:inkscape="http://www.inkscape.org/namespaces/inkscape" version="1.1" x="0px" y="0px" viewBox="0 0 100 125"><g transform="translate(0,-952.36218)"><path style="font-size:medium;font-style:normal;font-variant:normal;font-weight:normal;font-stretch:normal;text-indent:0;text-align:start;text-decoration:none;line-height:normal;letter-spacing:normal;word-spacing:normal;text-transform:none;direction:ltr;block-progression:tb;writing-mode:lr-tb;text-anchor:start;baseline-shift:baseline;opacity:1;color:#000000;fill:#000000;fill-opacity:1;stroke:none;stroke-width:6;marker:none;visibility:visible;display:inline;overflow:visible;enable-background:accumulate;font-family:Sans;-inkscape-font-specification:Sans" d="M 49.78125 10 A 3.0003 3.0003 0 0 0 47.78125 10.96875 L 25.78125 34.96875 A 3.0003 3.0003 0 1 0 30.21875 39 L 47 20.6875 L 47 67 C 46.97758 68.5849 48.414904 70.0625 50 70.0625 C 51.585096 70.0625 53.022415 68.5849 53 67 L 53 20.6875 L 69.78125 39 A 3.0003 3.0003 0 1 0 74.21875 34.96875 L 52.21875 10.96875 A 3.0003 3.0003 0 0 0 49.78125 10 z M 7.96875 59.9375 A 3.0003 3.0003 0 0 0 5 63 L 5 87 A 3.0003 3.0003 0 0 0 8 90 L 92 90 A 3.0003 3.0003 0 0 0 95 87 L 95 63 A 3.0003 3.0003 0 1 0 89 63 L 89 84 L 11 84 L 11 63 A 3.0003 3.0003 0 0 0 7.96875 59.9375 z " transform="translate(0,952.36218)"/></g></svg>