<?xml version="1.0" encoding="utf-8"?>
<!-- Generator: Adobe Illustrator 21.0.2, SVG Export Plug-In . SVG Version: 6.00 Build 0)  -->
<svg version="1.1" id="Layer_1" xmlns="http://www.w3.org/2000/svg" xmlns:xlink="http://www.w3.org/1999/xlink" x="0px" y="0px"
	 viewBox="0 0 14 14" enable-background="new 0 0 14 14" xml:space="preserve">
<g id="Arrow_Left_-_Grey">
</g>
<g>
	<path fill-rule="evenodd" clip-rule="evenodd" d="M6.970171,5.568181c-0.065966,0.005636-0.12853,0.031705-0.178977,0.074575
		L5.677557,6.597301C5.591383,6.671892,5.551558,6.786797,5.573085,6.898717C5.594613,7.010639,5.674223,7.102568,5.781917,7.13987
		C5.889613,7.177171,6.00903,7.154174,6.095169,7.079546l0.586649-0.502132v3.127131
		c-0.001624,0.114748,0.058664,0.22148,0.157777,0.279328c0.099112,0.057847,0.221694,0.057847,0.320809,0
		c0.099113-0.057848,0.159399-0.16458,0.157777-0.279328V6.577414l0.586647,0.502132
		C7.99097,7.154174,8.110385,7.177171,8.218081,7.13987c0.107697-0.037302,0.187306-0.12923,0.208835-0.241153
		c0.021527-0.11192-0.018298-0.226825-0.104471-0.301416L7.208807,5.642756C7.142767,5.586382,7.056559,5.559441,6.970171,5.568181z
		"/>
	<path fill-rule="evenodd" clip-rule="evenodd" d="M8.272727,3.022728c1.69831,0,3.080372,1.320669,3.176847,2.992898
		c0.006567,0.133581,0.095961,0.248799,0.223722,0.288352c0.976675,0.297538,1.690339,1.207961,1.690339,2.286932
		c0,1.321712-1.064642,2.386363-2.386362,2.386363H3.022727c-1.32172,0-2.386364-1.064651-2.386364-2.386363
		c0-1.185767,0.860428-2.161987,1.988636-2.351561C2.760048,6.214964,2.864251,6.106752,2.883523,5.97088
		c0.113355-0.768452,0.769084-1.357244,1.571022-1.357244c0.23273,0,0.450438,0.048686,0.651279,0.139205
		c0.150156,0.067427,0.326948,0.009213,0.40767-0.134233C6.062151,3.662267,7.088264,3.022728,8.272727,3.022728z
		 M8.272727,2.386364c-1.318787,0-2.466219,0.685323-3.151988,1.705255C4.908913,4.023695,4.689731,3.977272,4.454544,3.977272
		c-1.034492,0-1.875242,0.720906-2.122868,1.680397C0.996307,5.971106,0,7.163401,0,8.590909
		c0,1.665634,1.357089,3.022727,3.022727,3.022727h7.954545C12.642911,11.613636,14,10.256543,14,8.590909
		c0-1.282416-0.811531-2.365997-1.943892-2.803977C11.846191,3.877743,10.235633,2.386364,8.272727,2.386364z"/>
</g>
</svg>
