<?xml version="1.0" encoding="utf-8"?>
<!-- Generator: Adobe Illustrator 21.0.0, SVG Export Plug-In . SVG Version: 6.00 Build 0)  -->
<svg version="1.1" id="Layer_1" xmlns="http://www.w3.org/2000/svg" xmlns:xlink="http://www.w3.org/1999/xlink" x="0px" y="0px"
	 viewBox="0 0 14 14" enable-background="new 0 0 14 14" xml:space="preserve">
<g>
	<path d="M7.500931,8.255898c0.086375-0.047595,0.166628-0.10756,0.238356-0.179224c0.41213-0.412194,0.412098-1.082872,0-1.495002
		C7.539615,6.382033,7.274113,6.27207,6.991785,6.27207c-0.282393,0-0.547862,0.109963-0.747501,0.309603
		c-0.412195,0.41213-0.412195,1.082808,0,1.495034c0.071663,0.071664,0.151917,0.131534,0.238324,0.179192L4.30148,13.130184
		h0.561836l0.358542-0.80125h3.539758l0.358511,0.80125h0.561804L7.500931,8.255898z M6.986048,8.386181
		c0.001923,0,0.003782,0.000128,0.005704,0.000128c0.001891,0,0.00375-0.000128,0.005641-0.000128L7.4709,9.444438H6.512541
		L6.986048,8.386181z M6.283064,9.957238h1.417281l0.258163,0.5769H6.024934L6.283064,9.957238z M5.451272,11.816135
		l0.344184-0.769198h2.392465l0.344185,0.769198H5.451272z"/>
	<path d="M1.42785,10.20521C0.514775,8.013642,0.942989,5.390929,2.723082,3.610836
		c1.140043-1.140137,2.655718-1.767988,4.268044-1.767988c1.612231,0,3.127906,0.627851,4.267949,1.767894
		c1.140043,1.139948,1.767894,2.655718,1.767894,4.267949c0,0.813492-0.161715,1.601639-0.466609,2.330112l0.803468,0.552006
		C13.769722,9.864569,14,8.892009,14,7.878691c0-1.87211-0.729041-3.632154-2.052834-4.955853
		C10.62328,1.598857,8.863235,0.869816,6.991126,0.869816S3.358877,1.598857,2.035084,2.922744
		c-2.116763,2.116763-2.573536,5.25441-1.410986,7.834661L1.42785,10.20521z"/>
	<path d="M2.783044,9.258205C2.22515,7.68,2.561945,5.85276,3.822469,4.592328
		c0.846537-0.846629,1.972067-1.312812,3.169275-1.312812s2.322739,0.466183,3.169275,1.312721s1.31272,1.972067,1.31272,3.169275
		c0,0.520126-0.103749,1.021137-0.272653,1.497154l0.622221,0.427495c0.240857-0.604853,0.373002-1.253999,0.373002-1.924649
		c0-1.390188-0.541353-2.697118-1.524446-3.68012c-0.983001-0.983093-2.289931-1.524446-3.68012-1.524446
		S4.294533,3.098299,3.311532,4.081391C1.798757,5.594259,1.417025,7.813524,2.159904,9.686344L2.783044,9.258205z"/>
	<path d="M3.928056,8.471492C3.692254,7.445668,3.961322,6.326478,4.758971,5.52883
		c0.59548-0.59695,1.388718-0.924831,2.232681-0.924831S8.628854,4.93188,9.224334,5.52883
		c0.59695,0.595479,0.924831,1.388717,0.924831,2.232681c0,0.244074-0.036299,0.480886-0.08969,0.712738l0.391197,0.268793
		c0.089506-0.316854,0.150616-0.643173,0.150616-0.981531c0-0.963795-0.375667-1.870247-1.057159-2.552475
		c-0.682229-0.681494-1.588681-1.05716-2.552476-1.05716s-1.870247,0.375667-2.552476,1.05716
		C3.483744,6.165019,3.19262,7.524514,3.534929,8.741571L3.928056,8.471492z"/>
</g>
</svg>
