<?xml version="1.0" encoding="utf-8"?>
<!-- Generator: Adobe Illustrator 19.1.0, SVG Export Plug-In . SVG Version: 6.00 Build 0)  -->
<svg version="1.1" id="Layer_1" xmlns="http://www.w3.org/2000/svg" xmlns:xlink="http://www.w3.org/1999/xlink" x="0px" y="0px"
	 viewBox="0 0 12 12" enable-background="new 0 0 12 12" xml:space="preserve">
<g>
	<path fill="#010101" d="M11.74841,1.935848c-0.077906-0.079099-0.395196-0.079099-0.590392,0.116089L4.298412,8.911559
		L0.855064,5.467234c-0.19617-0.19519-0.512487-0.19519-0.708687,0c-0.19517,0.195189-0.19517,0.512496,0,0.707683l3.792672,3.79166
		c0.097098,0.098096,0.225225,0.147143,0.353353,0.147143c0.128104,0,0.256232-0.049047,0.35433-0.147143
		c0.009012-0.010011,0.013014-0.022019,0.022026-0.033031C4.690782,9.917529,4.715801,9.90852,4.735826,9.8885l7.129875-7.128881
		C12.060897,2.56443,12.060897,2.247126,11.74841,1.935848z"/>
</g>
</svg>
